<?xml version="1.0" standalone="no"?>
<!DOCTYPE svg PUBLIC "-//W3C//DTD SVG 1.1//EN" "http://www.w3.org/Graphics/SVG/1.1/DTD/svg11.dtd" >
<svg xmlns="http://www.w3.org/2000/svg">
<metadata>
Created by FontPrep 20130207 at Wed Dec 24 14:59:40 2014
 By Frederic Bourgeais
Copyright (c) 2014 by Frederic Bourgeais. All rights reserved.
</metadata>
<defs>
<font id="09e2238b5022754f14ab7f1288cfc315" horiz-adv-x='1024' >
  <font-face 
    font-family="UIessential72-regular"
    font-weight="400"
    font-stretch="normal"
    units-per-em="2048"
    panose-1="0 0 5 0 0 0 0 0 0 0"
    ascent="1536"
    descent="-512"
    x-height="1047"
    cap-height="1413"
    bbox="-63 -512 10278 2048"
    underline-thickness="102"
    underline-position="-102"
    unicode-range="U+000D-1F516"
  />
<missing-glyph horiz-adv-x="1421" 
d="M256 256h954l-954 965v-965zM1280 1280h-922l922 -932v932zM1536 1536v-1536h-1536v1536h1536z" />
    <glyph glyph-name="plus" unicode="PLUS" 
d="M1153 641h256q51 0 89 -39t38 -91t-37 -89t-90 -37h-256v-256q0 -53 -39 -91t-91 -38t-89 38t-37 91v256h-256q-53 0 -91 37t-38 89t38 91t91 39h256v256q0 53 37 90t89 37t91 -38t39 -89v-256z" />
    <glyph glyph-name="hyphen" unicode="HYPHEN" 
d="M641 641h768q51 0 89 -39t38 -91t-37 -89t-90 -37h-768q-53 0 -91 37t-38 89t38 91t91 39z" />
    <glyph glyph-name="spacer" unicode="SPACER" 
d="M981 1794h86q15 0 29 -12t14 -31v-1962q0 -19 -13 -31t-30 -12h-86q-16 0 -30 12q-13 12 -13 31v1962q0 18 13 31q14 12 30 12z" />
    <glyph glyph-name="more" unicode="MORE" 
d="M1536 256q0 106 75 181t181 75t181 -75t75 -181t-75 -181t-181 -75t-181 75t-75 181zM768 256q0 106 75 181t181 75t181 -75t75 -181t-75 -181t-181 -75t-181 75t-75 181zM0 256q0 106 75 181t181 75t181 -75t75 -181t-75 -181t-181 -75t-181 75t-75 181z" />
    <glyph glyph-name="uni2139" unicode="INFO" 
d="M788 1024v-129h68q59 0 59 -111v-331q0 -70 -59 -70h-68v-127h512v127h-69q-59 0 -60 70v571h-383zM1174 1280q0 63 -44 106q-44 44 -106 44q-63 0 -106 -44q-44 -44 -44 -106q0 -63 44 -106q44 -44 106 -44t106 44t44 106zM1028 1792q266 0 502 -137t377 -375t141 -520
t-146 -520t-380 -367t-513 -129t-517 148t-365 380t-127 510q0 276 146 514t381 367t501 129z" />
    <glyph glyph-name="arrowleft" unicode="ARROW&#x20;LEFT" 
d="M949 1153q52 0 90 -40t38 -90t-39 -89l-164 -166h642q53 0 91 -38t38 -91t-38 -90t-91 -37h-642l164 -168q39 -39 39 -90t-39 -89t-90 -38t-90 39l-475 473l475 475q39 39 91 39z" />
    <glyph glyph-name="arrowup" unicode="ARROW&#x20;UP" 
d="M1536 692q0 -51 -37 -88t-90 -37t-90 37l-166 164v-639q0 -53 -38 -91t-91 -38t-90 38t-37 91v639l-168 -164q-43 -39 -90 -39t-87 38t-40 91t39 90l473 496l475 -496q37 -41 37 -92z" />
    <glyph glyph-name="arrowright" unicode="ARROW&#x20;RIGHT" 
d="M1079 127q-51 0 -89 37t-38 88t37 92l164 168h-641q-53 0 -91 37t-38 90t38 91t91 38h641l-164 166q-39 35 -39 88t39 92t90 39t90 -39l476 -475l-476 -473q-39 -39 -90 -39z" />
    <glyph glyph-name="arrowdown" unicode="ARROW&#x20;DOWN" 
d="M512 585q0 52 37 90t88 38t92 -37l168 -164v639q0 53 37 91t90 38t91 -38t38 -91v-639l166 164q39 39 90 39t89 -38t38 -91t-37 -90l-475 -496l-473 496q-39 37 -39 89z" />
    <glyph glyph-name="arrowupleft" unicode="ARROW&#x20;UP&#x20;LEFT" 
d="M512 1024h672q53 0 90 -38t37 -91t-38 -90t-89 -37h-234l549 -549q37 -37 37 -90t-37 -91t-89 -38t-91 39l-551 549v-240q0 -51 -37 -87t-90 -36t-91 37t-38 90v672z" />
    <glyph glyph-name="arrowupright" unicode="ARROW&#x20;UP&#x20;RIGHT" 
d="M1536 1024v-672q0 -53 -39 -90t-92 -37t-89 37t-36 90v236l-551 -549q-39 -39 -91 -39t-89 38t-37 91t37 90l549 549h-234q-51 0 -89 38t-38 92t37 90t90 36h672z" />
    <glyph glyph-name="arrowdownright" unicode="ARROW&#x20;DOWN&#x20;RIGHT" 
d="M1536 0h-672q-53 0 -90 39t-37 92t37 89t90 36h236l-549 551q-39 39 -39 91t38 89t91 37t90 -37l549 -549v234q0 51 38 89t92 38t90 -37t36 -90v-672z" />
    <glyph glyph-name="arrowdownleft" unicode="ARROW&#x20;DOWN&#x20;LEFT" 
d="M512 0v672q0 53 38 90t91 37t90 -38t37 -89v-234l549 549q37 37 90 37t91 -37t38 -89t-39 -91l-549 -551h240q51 0 87 -38t36 -90t-37 -90t-90 -38h-672z" />
    <glyph glyph-name="uni21AC" unicode="HAT&#x20;TIP" 
d="M1024 383v-297q0 -34 -26 -60t-60 -26h-84q-34 0 -60 26t-26 60v297h256zM1280 768v338q0 23 12 22q8 0 19 -10l514 -454q12 -12 12 -28t-12 -30l-516 -454q-9 -10 -19 -10t-10 18v352h-705q-182 0 -314 132t-132 317t132 317t314 131q181 0 315 -133t134 -318v-63h-256
v63q0 80 -56 138t-136 57q-80 0 -135 -57q-56 -56 -56 -136t56 -136t134 -56h705z" />
    <glyph glyph-name="left" unicode="LEFT" 
d="M1023 1024q39 0 63 -26t24 -60v-170h596q34 0 60 -26t26 -60v-340q0 -34 -26 -60t-60 -26h-596v-170q0 -34 -25 -60t-61 -26t-59 27l-426 422q-27 27 -27 65t27 57l426 428q20 25 58 25z" />
    <glyph glyph-name="up" unicode="UP" 
d="M1023 1280q38 0 64 -25l424 -428q25 -25 25 -61t-26 -60t-60 -24h-170v-596q0 -34 -26 -60t-60 -26h-340q-34 0 -60 26t-26 60v596h-170q-34 0 -60 25t-26 63t27 57l426 428q20 25 58 25z" />
    <glyph glyph-name="right" unicode="RIGHT" 
d="M1792 513q0 -38 -25 -64l-428 -422q-25 -27 -61 -27t-60 26t-24 60v170h-596q-34 0 -60 26t-26 60v340q0 34 26 60t60 26h596v170q0 34 25 60t63 26t57 -25l428 -428q25 -20 25 -58z" />
    <glyph glyph-name="down" unicode="DOWN" 
d="M512 511q0 39 26 63t60 24h170v596q0 34 26 60t60 26h340q34 0 60 -26t26 -60v-596h170q34 0 60 -25t26 -61t-25 -59l-424 -426q-27 -27 -65 -27t-57 27l-426 426q-27 20 -27 58z" />
    <glyph glyph-name="topofpage" unicode="TOP&#x20;OF&#x20;PAGE" 
d="M854 256h340q34 0 60 -26t26 -60v-84q0 -34 -26 -60t-60 -26h-340q-34 0 -60 26t-26 60v84q0 34 26 60t60 26zM1622 938q0 -34 -26 -60q-26 -24 -60 -24h-256v-385q0 -35 -26 -59t-60 -25h-340q-34 0 -60 25t-26 59v385h-256q-38 0 -62 24t-24 62t23 59l516 512
q20 25 73 25q22 0 45 -25l512 -512q27 -27 27 -61z" />
    <glyph glyph-name="minus" unicode="MINUS" 
d="M641 641h768q51 0 89 -39t38 -91t-37 -89t-90 -37h-768q-53 0 -91 37t-38 89t38 91t91 39z" />
    <glyph glyph-name="uni22C6" unicode="STAR" 
d="M1821 1024q115 0 115 -78q0 -40 -68 -82l-463 -299l199 -551q12 -37 12 -63q0 -72 -60 -72q-40 0 -88 41l-444 381l-444 -381q-47 -41 -81 -41q-65 0 -67 72q0 31 12 63l199 551l-463 299q-68 43 -68 82q1 78 115 78h551l162 545q27 92 84 92t84 -92l162 -545h551z" />
    <glyph glyph-name="uni231A" unicode="WATCH" 
d="M1362 768q0 142 -98 240t-240 98t-240 -98t-98 -240t98 -240t240 -98t240 98q98 99 98 240zM2046 765q0 -9 -6 -22q-143 -272 -433 -442t-583 -170q-215 0 -440 97q-318 137 -522 410q-62 83 -62 132q0 16 6 29q96 182 264 322t365 215t389 75q299 0 589 -173t427 -439
q6 -25 6 -34z" />
    <glyph glyph-name="fastforward" unicode="FAST&#x20;FORWARD" 
d="M768 43v492q0 23 -16 22q-10 0 -19 -6l-698 -524q-35 -21 -35 16v1452q0 23 16 23q8 0 19 -7l698 -524q8 -6 19 -6q16 0 16 23v491q0 23 16 23q10 0 19 -7l954 -716q14 -12 14 -27t-14 -25l-954 -716q-8 -6 -19 -7q-16 0 -16 23z" />
    <glyph glyph-name="fastrewind" unicode="FAST&#x20;REWIND" 
d="M1024 1495v-491q0 -23 16 -23q8 0 19 6l698 524q8 6 19 7q16 0 16 -23v-1452q0 -23 -16 -23q-10 0 -19 7l-698 524q-10 6 -19 6q-16 0 -16 -22v-492q0 -37 -35 -16l-954 716q-33 23 0 52l954 716q35 21 35 -16z" />
    <glyph glyph-name="uni2421" unicode="CLOSE" 
d="M1655 375l-238 -238l-393 389l-393 -389l-238 238l389 393l-389 393l238 238l393 -389l393 389l238 -238l-389 -393z" />
    <glyph glyph-name="stop" unicode="STOP" 
d="M1792 1493v-1450q0 -19 -12 -31t-31 -12h-1452q-41 0 -41 43v1450q0 43 41 43h1452q18 0 31 -12q12 -13 12 -31z" />
    <glyph glyph-name="whiteuppointingtriangle" unicode="SLIDE&#x20;UP" 
d="M1966 340l-92 -88l-850 850l-850 -850l-92 88l942 940z" />
    <glyph glyph-name="blackuppointingsmalltriangle" unicode="COLLAPSE" 
d="M1024 1110l512 -684h-1024z" />
    <glyph glyph-name="blackrightpointingtriangle" unicode="PLAY" 
d="M1769 770q0 -12 -16 -18l-1458 -725q-12 -4 -16 -4q-23 0 -23 28v1432q0 29 23 28q10 0 16 -4l1458 -719q16 -6 16 -18z" />
    <glyph glyph-name="whiterightpointingtriangle" unicode="SLIDE&#x20;RIGHT" 
d="M600 -174l-90 92l850 850l-850 850l90 92l942 -942z" />
    <glyph glyph-name="whiterightpointingsmalltriangle" unicode="EXPAND&#x20;RIGHT" 
d="M768 1153l682 -512l-682 -512v1024z" />
    <glyph glyph-name="whitedownpointingtriangle" unicode="SLIDE&#x20;DOWN" 
d="M1024 436l850 852l92 -90l-942 -942l-942 942l92 90z" />
    <glyph glyph-name="uni25BE" unicode="EXPAND" 
d="M1024 256l-512 682h1024z" />
    <glyph glyph-name="whiteleftpointingtriangle" unicode="SLIDE&#x20;LEFT" 
d="M692 768l850 -850l-92 -92l-940 942l940 942l92 -92z" />
    <glyph glyph-name="whiteleftpointingsmalltriangle" unicode="EXPAND&#x20;LEFT" 
d="M1280 1153v-1024l-682 512z" />
    <glyph glyph-name="whitecircle" unicode="CIRCLE" 
d="M1024 0q317 0 543 225q225 225 225 543t-225 542q-225 226 -543 226t-542 -225q-226 -225 -226 -543t225 -543q226 -225 543 -225zM1028 1792q266 0 502 -137t377 -375t141 -520t-146 -520t-380 -367t-513 -129t-517 148t-365 380t-127 510q0 276 146 514t381 367
t501 129z" />
    <glyph glyph-name="uni2601" unicode="CLOUD" 
d="M385 0v6q-37 -6 -66 -6q-133 0 -226 93t-93 220t78 217t194 107q-16 66 -16 131q0 212 151 362t361 150q158 0 287 -88t186 -229q96 61 209 61q162 0 274 -112t111 -271q0 -68 -23 -129q100 -10 168 -82t68 -176t-75 -179t-181 -75h-1407z" />
    <glyph glyph-name="female" unicode="FEMALE" 
d="M1024 641q159 0 271 112q112 111 112 269t-113 272q-114 114 -272 113q-158 0 -270 -113q-112 -112 -113 -270q0 -158 113 -270t272 -113zM895 256v141q-229 47 -371 227t-141 400q0 270 191 454t450 185q200 0 358 -110t234 -287q47 -119 47 -242q0 -234 -147 -408
t-365 -219v-141h129q53 0 90 -38t37 -91t-38 -90t-89 -37h-129v-129q0 -51 -37 -89t-90 -38t-91 37t-38 90v129h-127q-53 0 -91 37t-38 90t38 91t91 38h127z" />
    <glyph glyph-name="male" unicode="MALE" 
d="M810 170q160 0 272 113t112 271t-113 272q-113 112 -271 112t-272 -113q-112 -113 -112 -271t112 -272q112 -112 272 -112zM1792 1536v-639q0 -53 -37 -91t-90 -38t-91 38t-38 91v203l-193 -193q106 -156 107 -352q0 -269 -190 -455t-456 -186t-450 192
q-184 193 -184 459q0 265 194 447t447 182q197 0 352 -107l193 193h-203q-53 0 -91 38t-38 91t38 90t91 37h639z" />
    <glyph glyph-name="heart" unicode="HEART" 
d="M1479 1516q213 0 354 -151t141 -330t-74 -354t-184 -319q-112 -144 -244 -275q-237 -232 -448 -343q-213 111 -446 341q-133 130 -243 272q-109 143 -183 319t-74 356t136 332t355 152q158 0 276 -90t179 -246q61 156 178 246t277 90z" />
    <glyph glyph-name="music" unicode="MUSIC" 
d="M2048 1409v-1243q0 -170 -155 -299t-334 -129q-141 0 -235 87q-93 87 -93 212q0 170 153 301q154 131 336 131q37 0 72 -6v526l-981 -237q6 -739 -4 -830v-2q0 -170 -150 -301t-329 -131q-141 0 -235 86q-93 86 -93 213q0 168 152 301t337 133q20 0 66 -4v893q0 43 29 77
t69 44l1239 303l29 2q51 0 89 -38t38 -89z" />
    <glyph glyph-name="uni2691" unicode="FLAG" 
d="M256 0v1536q0 121 319 121q164 0 462 -77q297 -77 421 -77t221 31q16 4 36 4q21 0 49 -22t28 -64v-684q0 -49 -58 -81q-94 -52 -260 -52q-165 -1 -463 67t-436 68q-43 0 -63 -2v-768h-256z" />
    <glyph glyph-name="uni2693" unicode="ANCHORLINK" 
d="M903 1298q0 -49 36 -85q36 -35 85 -35t85 36t36 84q0 49 -36 85t-85 36t-85 -36t-36 -85zM897 895v129q-82 37 -131 112q-49 76 -49 186t90 200t217 90t217 -90t90 -217q0 -92 -49 -168t-129 -113v-129h127q51 0 89 -38t38 -90t-37 -88t-90 -36h-125v-459q180 0 311 140
l-163 163q-7 5 -7 15t19 10h444q33 0 33 -35v-444q0 -19 -6 -19t-19 9l-155 155q-76 -82 -241 -162t-349 -80t-351 80q-167 78 -235 162l-155 -155q-12 -8 -17 -9q-8 0 -8 19v444q0 35 33 35h444q18 0 19 -12l-7 -13l-163 -163q131 -139 315 -140v459h-129q-53 0 -91 36
t-38 88t38 90t91 38h129z" />
    <glyph glyph-name="uni2699" unicode="SETTINGS&#x20;ALT" 
d="M424 207q-26 -1 -46 -21t-20 -48t20 -47t46 -19t49 18q20 20 21 47q0 27 -22 49t-48 21zM1486 1508q16 -14 15 -32q0 -18 -33 -51l-137 -143q-47 -47 -47 -88t6 -59t43 -88q72 -37 89 -43q16 -6 56 -6t93 49l141 135q30 32 56 32t36 -32q31 -68 31 -164t-72 -166
q-213 -213 -358 -213l-160 4q-71 1 -135 -61t-565 -564q-53 -53 -119 -53t-120 54t-54 120t53 119q501 502 563 564t62 147l-4 149q0 145 213 359q72 72 184 71q61 0 104 -13t59 -27z" />
    <glyph glyph-name="uni26A1" unicode="FLASH" 
d="M1153 1024h639l-1280 -1280l385 768h-641l1280 1280z" />
    <glyph glyph-name="uni26AE" unicode="WARNING" 
d="M1153 380q0 52 -39 90t-91 38t-89 -38t-37 -90t37 -90t89 -38t91 38t39 90zM973 623h92q0 102 51 326t51 270q0 211 -145 211q-154 0 -154 -211q0 -45 52 -269t53 -327zM1028 1792q266 0 502 -137t377 -375t141 -520t-146 -520t-380 -367t-513 -129t-517 148t-365 380
t-127 510q0 276 146 514t381 367t501 129z" />
    <glyph glyph-name="uni2709" unicode="MAIL" 
d="M2048 170q0 -72 -49 -121t-121 -49h-1708q-72 0 -121 49t-49 121v897l827 -580q90 -61 199 -61t191 61l831 580v-897zM170 1536h1708q55 0 100 -33q46 -33 62 -87t-1 -106t-65 -83l-850 -598q-49 -31 -100 -31t-100 31l-852 598q-44 31 -62 84t-2 106t62 86t100 33z" />
    <glyph glyph-name="uni270A" unicode="CHECKED&#x20;MAIL" 
d="M2048 170q0 -70 -50 -120t-120 -50h-1708q-70 0 -120 50t-50 120v897l827 -580q90 -61 199 -61t191 61l831 580v-897zM2048 1332q0 -81 -50 -130t-120 -49h-1708q-68 0 -119 49t-51 130t78 136l852 551q41 27 93 27t91 -27l858 -551q76 -55 76 -136z" />
    <glyph glyph-name="uni270E" unicode="EDIT" 
d="M75 -256q-23 0 -49 25t-26 49t6 43l236 577q2 10 16 25l987 987l461 -461l-987 -987q-14 -14 -25 -16l-577 -236q-18 -6 -42 -6zM1622 1792q36 0 59 -25l342 -342q25 -25 25 -61t-25 -57l-196 -197l-461 461l197 196q23 25 59 25z" />
    <glyph glyph-name="uni2710" unicode="WRITEDISABLE" 
d="M74 -256q-26 0 -50 26t-24 50t6 41l236 577q2 10 16 25l326 325l460 -460l-325 -326q-14 -14 -25 -16l-577 -236q-18 -6 -43 -6zM1622 1792q36 0 59 -25l342 -342q25 -25 25 -61t-25 -57l-196 -197l-461 461l197 196q23 25 59 25zM2048 -130q0 -52 -38 -89t-91 -37
t-90 37l-1792 1792q-37 37 -37 90t38 91t91 38t90 -37l664 -665l362 360l461 -461l-360 -362l665 -664q37 -41 37 -93z" />
    <glyph glyph-name="checked" unicode="CHECKED" 
d="M770 33l-631 631l238 237l389 -389l756 756l239 -244z" />
    <glyph glyph-name="uni2715" unicode="CLOSE&#x20;ALT" 
d="M1966 -82l-92 -92l-850 852l-850 -852l-92 92l852 850l-852 850l92 92l850 -852l850 852l92 -92l-852 -850z" />
    <glyph glyph-name="uni2729" unicode="FAVORITE&#x20;INACTIVE" 
d="M1174 895l-150 500l-150 -500h-503l428 -277l-176 -489l401 342l401 -342l-176 489l428 277h-503zM1821 1024q115 0 115 -78q0 -40 -68 -82l-463 -299l199 -551q12 -37 12 -63q0 -72 -60 -72q-40 0 -88 41l-444 381l-444 -381q-47 -41 -81 -41q-65 0 -67 72q0 31 12 63
l199 551l-463 299q-68 43 -68 82q1 78 115 78h551l162 545q27 92 84 92t84 -92l162 -545h551z" />
    <glyph glyph-name="uni27F2" unicode="REWIND" 
d="M1024 1536q201 0 376 -97q176 -97 284 -275t108 -396q0 -308 -220 -538t-548 -230q-180 0 -344 82t-270 225q-25 35 -25 82t38 85q39 38 97 38t94 -51q158 -205 410 -205q212 0 362 151t150 361t-150 362q-150 150 -366 150t-356 -152l204 -204q8 -8 9 -17q0 -10 -23 -10
h-555q-43 0 -43 41v555q0 23 12 23q13 -1 19 -11l194 -194q229 225 543 225z" />
    <glyph glyph-name="uni27F3" unicode="REFRESH" 
d="M1792 1493v-555q0 -41 -43 -41h-555q-23 0 -23 9t9 18l204 204q-141 152 -356 152q-216 0 -366 -151t-150 -361t151 -362q151 -150 361 -150q252 0 410 205q39 51 96 51t96 -38t39 -84t-27 -83q-106 -143 -270 -225t-344 -82q-328 0 -548 229t-220 539q0 217 109 395
q109 177 283 275t376 98q314 0 543 -225l194 194q10 10 21 11q10 0 10 -23z" />
    <glyph glyph-name="uniE570" unicode="PIE&#x20;CHARTS" 
d="M1024 768h768q0 -316 -225 -542t-543 -226t-543 225t-225 543t225 542q225 226 543 226v-768zM1280 1024v768q316 0 542 -225t226 -543h-768z" />
    <glyph glyph-name="uniE8A0" unicode="PAUSE" 
d="M1665 1493v-1450q0 -19 -12 -31t-31 -12h-428q-41 0 -41 43v1450q0 43 41 43h428q18 0 31 -12q12 -13 12 -31zM897 1493v-1450q0 -19 -12 -31t-31 -12h-428q-41 0 -41 43v1450q0 43 41 43h428q18 0 31 -12q12 -13 12 -31z" />
    <glyph glyph-name="uniE9A0" unicode="MOSAIC" 
d="M1622 256h340q34 0 60 -26t26 -60v-340q0 -34 -26 -60t-60 -26h-340q-38 0 -62 26t-24 60v340q0 34 24 60t62 26zM854 256h340q34 0 60 -26t26 -60v-340q0 -34 -26 -60t-60 -26h-340q-34 0 -60 26t-26 60v340q0 34 26 60t60 26zM86 256h340q34 0 60 -26t26 -60v-340
q0 -34 -26 -60t-60 -26h-340q-34 0 -60 26t-26 60v340q0 34 26 60t60 26zM1622 1024h340q34 0 60 -26t26 -60v-340q0 -34 -26 -60t-60 -26h-340q-38 0 -62 26t-24 60v340q0 34 24 60t62 26zM854 1024h340q34 0 60 -26t26 -60v-340q0 -34 -26 -60t-60 -26h-340q-34 0 -60 26
t-26 60v340q0 34 26 60t60 26zM86 1024h340q34 0 60 -26t26 -60v-340q0 -34 -26 -60t-60 -26h-340q-34 0 -60 26t-26 60v340q0 34 26 60t60 26zM1622 1792h340q34 0 60 -26t26 -60v-340q0 -38 -26 -62t-60 -24h-340q-38 0 -62 25t-24 61v340q0 34 24 60t62 26zM854 1792h340
q34 0 60 -26t26 -60v-340q0 -38 -26 -62t-60 -24h-340q-34 0 -60 25t-26 61v340q0 34 26 60t60 26zM86 1792h340q34 0 60 -26t26 -60v-340q0 -38 -26 -62t-60 -24h-340q-34 0 -60 25t-26 61v340q0 34 26 60t60 26z" />
    <glyph glyph-name="uniE9A1" unicode="LIST" 
d="M86 256h1876q34 0 60 -26t26 -60v-340q0 -34 -26 -60t-60 -26h-1876q-34 0 -60 26t-26 60v340q0 34 26 60t60 26zM86 1024h1876q34 0 60 -26t26 -60v-340q0 -34 -26 -60t-60 -26h-1876q-34 0 -60 26t-26 60v340q0 34 26 60t60 26zM86 1792h1876q34 0 60 -26t26 -60v-340
q0 -38 -26 -62t-60 -24h-1876q-34 0 -60 25t-26 61v340q0 34 26 60t60 26z" />
    <glyph glyph-name="uniEB01" unicode="DOWNLOAD" 
d="M385 256h1280q51 0 89 -38t38 -90t-37 -90t-90 -38h-1280q-53 0 -91 38t-38 91t38 90t91 37zM512 940q0 34 26 58q26 26 60 26h170v426q0 34 26 60t60 26h340q34 0 60 -26t26 -60v-426h170q34 0 60 -26t26 -58t-23 -57l-426 -471q-20 -27 -63 -27t-63 27l-426 471
q-23 23 -23 57z" />
    <glyph glyph-name="uniEB41" unicode="UPLOAD" 
d="M1024 1153q40 0 63 -29l426 -471q23 -23 23 -57t-26 -58q-26 -26 -60 -26h-170v-426q0 -34 -26 -60t-60 -26h-340q-34 0 -60 26t-26 60v426h-170q-34 0 -60 26t-26 59t23 56l426 471q23 29 63 29zM1665 1280h-1280q-53 0 -91 38t-38 91t38 90t91 37h1280q51 0 89 -37
t38 -90t-37 -91t-90 -38z" />
    <glyph glyph-name="uniEB82" unicode="REFRESHING" 
d="M1024 256q256 0 410 205q39 51 93 51t96 -32t42 -82t-27 -91q-102 -139 -270 -223t-332 -84t-307 59t-248 166l-194 -194q-10 -10 -19 -11q-12 0 -12 23v555q0 18 12 30t31 13h555q22 -1 22 -11t-8 -18l-204 -204q141 -152 360 -152zM1792 1493v-555q0 -41 -43 -41h-555
q-23 0 -23 12q0 6 9 15l204 204q-141 152 -360 152q-250 0 -410 -205q-39 -51 -96 -51t-96 39t-39 84t27 82q100 139 269 223t332 84t309 -62t247 -163l194 194q10 10 19 11q12 0 12 -23z" />
    <glyph glyph-name="uniEE00" unicode="SHARE" 
d="M1794 -129q0 -53 -38 -90t-91 -37h-1536q-51 0 -89 38t-38 89v1280q0 53 37 91t90 38h533q-166 -129 -232 -256h-174v-1024h1280q0 264 2 289l256 235v-653zM1362 389q-36 0 -58 26q-24 26 -24 60v254q-332 -6 -558 -97t-323 -317q-2 -8 -9 -8t-7 12q8 276 128 521
q67 135 164 238t254 172t351 75v254q0 33 24 59t59 27q35 0 60 -25l596 -553q27 -27 29 -61q-4 -33 -29 -59l-596 -553q-25 -25 -61 -25z" />
    <glyph glyph-name="uniF000" unicode="SHARP" 
d="M1792 575v130q0 27 -18 45t-45 18h-3q-27 0 -45 -18t-18 -45v-23h-127v23q0 27 -18 45t-45 18h-3q-27 0 -45 -18t-18 -45v-23h-131q-16 92 -87 152t-165 61q-94 0 -165 -60t-87 -153h-133v23q0 27 -18 45q-17 18 -45 18t-46 -18t-18 -45v-23h-129v23q0 27 -18 45
q-17 18 -45 18t-46 -18t-18 -45v-130q0 -27 18 -45t45 -18t46 18q18 18 18 45v23h129v-23q0 -27 18 -45t45 -18t46 18q18 18 18 45v23h133q16 -92 87 -154t165 -61q94 0 165 61t87 154h131v-23q0 -27 18 -45t45 -18h3q27 0 45 18t18 45v23h127v-23q0 -27 18 -45t45 -18h3
q27 0 45 18t18 45zM1878 1024h127q19 0 31 -12t12 -31v-682q0 -15 -12 -29t-31 -14h-127q-18 0 -30 -12t-13 -29v-45q0 -16 12 -30q11 -14 29 -13q18 0 30 -12t13 -29v-43q0 -19 -12 -31t-29 -12h-1708q-16 0 -30 12q-13 12 -13 31v43q0 16 13 28q12 12 30 13q18 0 31 13
q12 13 12 30v45q0 17 -12 29t-31 12h-127q-18 0 -31 13q-12 13 -12 30v682q0 19 12 31t31 12h127q18 0 31 12q12 12 12 31v43q0 16 -12 28q-11 12 -29 13q-18 0 -32 13q-13 13 -13 30v43q0 19 13 31t30 12h1708q16 0 28 -12t13 -31v-43q0 -16 -12 -30q-11 -14 -29 -13
q-18 0 -30 -12t-13 -29v-43q0 -18 12 -31q13 -12 31 -12z" />
    <glyph glyph-name="uniF002" unicode="SEARCH" 
d="M768 895q0 -159 112 -271t272 -112t272 112t112 272t-113 272t-273 112t-270 -112q-112 -112 -112 -273zM348 -41q-51 0 -91 38t-40 91t39 92l360 361q-104 164 -104 354q0 265 186 453t452 188t454 -187t188 -453t-187 -454q-187 -186 -454 -186q-190 0 -354 104
l-361 -360q-37 -41 -88 -41z" />
    <glyph glyph-name="uniF00E" unicode="ZOOM" 
d="M1280 1024v129q0 53 -37 90t-89 37t-91 -38t-39 -89v-129h-127q-53 0 -91 -39t-38 -91t38 -89t91 -37h127v-127q0 -53 39 -91t91 -38t89 38t37 91v127h129q53 0 90 37t37 89t-38 91t-89 39h-129zM348 -41q-51 0 -91 38t-40 91t39 92l360 361q-104 164 -104 354
q0 265 186 453t452 188t454 -187t188 -453t-187 -454q-187 -186 -454 -186q-190 0 -354 104l-361 -360q-37 -41 -88 -41z" />
    <glyph glyph-name="uniF010" unicode="UNZOOM" 
d="M1409 1024h-512q-53 0 -91 -39t-38 -91t38 -89t91 -37h512q53 0 90 37t37 89t-38 91t-89 39zM348 -41q-51 0 -91 38t-40 91t39 92l360 361q-104 164 -104 354q0 265 186 453t452 188t454 -187t188 -453t-187 -454q-187 -186 -454 -186q-190 0 -354 104l-361 -360
q-37 -41 -88 -41z" />
    <glyph glyph-name="uniF012" unicode="LEVEL" 
d="M256 469v-426q0 -43 -43 -43h-170q-43 0 -43 43v426q0 43 43 43h170q43 0 43 -43zM768 725v-682q0 -43 -43 -43h-170q-43 0 -43 43v682q0 43 43 43h170q43 0 43 -43zM1280 981v-938q0 -43 -43 -43h-170q-43 0 -43 43v938q0 43 43 43h170q43 0 43 -43zM1792 1237v-1194
q0 -43 -43 -43h-170q-43 0 -43 43v1194q0 43 43 43h170q43 0 43 -43z" />
    <glyph glyph-name="uniF013" unicode="SETTINGS" 
d="M1024 512q106 0 181 75t75 181t-75 181t-181 75t-181 -75t-75 -181t75 -181t181 -75zM1745 374q0 -24 8 -38l68 -148q18 -33 -9 -71l-137 -137q-35 -25 -71 -9l-148 68q-14 10 -38 10t-38 -10l-94 -37q-37 -14 -55 -53l-53 -156q-12 -35 -58 -47q-47 -2 -96 -2l-96 2
q-45 12 -58 47l-53 156q-18 39 -55 53l-94 37q-14 10 -38 10t-38 -10l-148 -68q-37 -16 -71 9l-137 137q-25 35 -9 71l68 148q8 16 8 39t-8 37l-37 94q-14 35 -53 55l-156 53q-35 12 -47 58q-2 47 -2 96l2 96q12 45 47 58l156 53q39 18 53 55l37 94q8 14 8 37t-8 39l-68 148
q-16 37 9 71l137 137q39 27 71 9l148 -68q14 -10 38 -10t38 10l94 37q39 14 55 53l53 156q12 39 58 44t96 5l96 -6q45 -4 58 -43l53 -156q16 -39 55 -53l94 -37q14 -10 38 -10t38 10l148 68q35 18 71 -9l137 -137q27 -37 9 -71l-68 -148q-8 -16 -8 -39t8 -37l37 -94
q14 -39 53 -55l156 -53q39 -12 44 -58t5 -96l-6 -96q-4 -45 -43 -58l-156 -53q-39 -16 -53 -55l-37 -94q-8 -14 -8 -38z" />
    <glyph glyph-name="uniF015" unicode="HOMEPAGE" 
d="M1987 807q0 -39 -68 -39h-129v-768h-510v555q0 106 -75 181t-181 75t-181 -75t-75 -181v-555h-512v768h-129q-66 0 -66 39q0 27 29 53l934 932l934 -932q29 -33 29 -53z" />
    <glyph glyph-name="uniF02A" unicode="BOOKALT" 
d="M1665 256h-1239q-41 0 -41 -43v-299q0 -16 12 -28t29 -13h1239v256q68 0 127 33v-289q0 -53 -37 -91t-90 -38h-1280q-53 0 -91 38t-38 91v1792q0 53 38 90t91 37h1280q51 0 89 -38t38 -89v-1280q0 -53 -37 -91t-90 -38z" />
    <glyph glyph-name="uniF02B" unicode="TAG" 
d="M1707 1321q52 0 90 37t38 90t-38 91t-91 38t-90 -38t-37 -90t38 -90t90 -38zM1194 1790h684q72 0 121 -49t49 -121v-684q0 -72 -51 -121l-1024 -1024q-53 -49 -122 -49t-118 49l-684 684q-49 49 -49 120t49 120l1024 1024q49 51 121 51z" />
    <glyph glyph-name="uniF02C" unicode="BOOK" 
d="M256 0v1280q372 0 526 -20t242 -109q88 89 242 109t526 20v-1280q-372 0 -526 -20t-242 -109q-88 89 -242 109t-526 20z" />
    <glyph glyph-name="uniF02D" unicode="IBOOKS" 
d="M1919 127v1153q53 0 91 -37t38 -90v-1026q0 -53 -38 -90t-91 -37h-1792q-53 0 -90 37t-37 90v1026q0 51 37 89t90 38v-1153h897q-88 89 -243 109t-525 20v1280q372 0 526 -20t242 -109q88 89 242 109t526 20v-1280q-372 0 -526 -20t-242 -109h895z" />
    <glyph glyph-name="uniF02E" unicode="BOOKMARKS" 
d="M1665 256h-1239q-41 0 -41 -43v-299q0 -16 12 -28t29 -13h1239v256q68 0 127 33v-289q0 -53 -37 -91t-90 -38h-1280q-53 0 -91 38t-38 91v1792q0 53 38 90t91 37h639v-700q0 -27 18 -49q18 -21 48 -21t51 22l139 140l139 -140q18 -20 49 -20t50 20q18 20 18 48v700h129
q51 0 89 -38t38 -89v-1280q0 -53 -37 -91t-90 -38z" />
    <glyph glyph-name="uniF02F" unicode="PRINT" 
d="M1536 512v-469q0 -43 -31 -74l-194 -194q-31 -31 -74 -31h-682q-43 0 -43 43v725h1024zM1665 1280h256q53 0 90 -38t37 -89v-768q0 -53 -37 -91t-90 -38h-129v469q0 43 -39 43h-1454q-41 0 -41 -43v-469h-129q-53 0 -91 38t-38 91v768q0 53 38 90t91 37h256v385
q0 53 37 90t90 37h1024q53 0 91 -37t38 -90v-385z" />
    <glyph glyph-name="uniF031" unicode="TYPE" 
d="M1792 893h-129v108q0 362 -383 363v-1096q0 -115 106 -114h150v-154h-897v154h149q106 0 107 114v1096q-383 0 -383 -363v-108h-129v643h1409v-643z" />
    <glyph glyph-name="uniF034" unicode="FONTSIZE" 
d="M1241 1087l-166 -497h346l-178 497h-2zM338 154q0 -28 47 -31v-123h-385v123q74 0 115 18t61 72l320 897h233l78 -213l-113 -322l-110 308h-4l-134 -406h218l-48 -121h-219l-53 -168q-6 -25 -6 -34zM512 0v152q94 0 148 22t79 88l394 1104h288l412 -1104q27 -68 76 -90
t139 -20v-152h-715v152h164q61 0 62 30l-9 49l-67 207h-467l-68 -207q-10 -31 -10 -43q0 -37 70 -36h157v-152h-653z" />
    <glyph glyph-name="uniF036" unicode="ALIGN&#x20;TO&#x20;LEFT" 
d="M385 256h1024q53 0 90 -38t37 -90t-37 -90t-90 -38h-1024q-53 0 -91 38t-38 91t38 90t91 37zM385 768h1280q51 0 89 -38t38 -90t-37 -90t-90 -38h-1280q-53 0 -91 38t-38 91t38 90t91 37zM1409 1024h-1024q-53 0 -91 38t-38 91t38 90t91 37h1024q53 0 90 -38t37 -90
t-37 -90t-90 -38z" />
    <glyph glyph-name="uniF037" unicode="CENTER" 
d="M385 256h1280q51 0 89 -38t38 -90t-37 -90t-90 -38h-1280q-53 0 -91 38t-38 91t38 90t91 37zM641 768h768q53 0 90 -38t37 -90t-37 -90t-90 -38h-768q-53 0 -91 38t-38 91t38 90t91 37zM1665 1024h-1280q-53 0 -91 38t-38 91t38 90t91 37h1280q51 0 89 -38t38 -90
t-37 -90t-90 -38z" />
    <glyph glyph-name="uniF038" unicode="ALIGN&#x20;TO&#x20;RIGHT" 
d="M641 256h1024q51 0 89 -38t38 -90t-37 -90t-90 -38h-1024q-53 0 -91 38t-38 91t38 90t91 37zM385 768h1280q51 0 89 -38t38 -90t-37 -90t-90 -38h-1280q-53 0 -91 38t-38 91t38 90t91 37zM1665 1024h-1024q-53 0 -91 38t-38 91t38 90t91 37h1024q51 0 89 -38t38 -90
t-37 -90t-90 -38z" />
    <glyph glyph-name="uniF039" unicode="JUSTIFY" 
d="M385 256h1280q51 0 89 -38t38 -90t-37 -90t-90 -38h-1280q-53 0 -91 38t-38 91t38 90t91 37zM385 768h1280q51 0 89 -38t38 -90t-37 -90t-90 -38h-1280q-53 0 -91 38t-38 91t38 90t91 37zM1665 1024h-1280q-53 0 -91 38t-38 91t38 90t91 37h1280q51 0 89 -38t38 -90
t-37 -90t-90 -38z" />
    <glyph glyph-name="uniF03C" unicode="PICTURES" 
d="M1792 1153h-1024v-1026h1024v1026zM1921 1237v-1452q0 -17 -13 -29t-30 -12h-1196q-16 0 -29 12q-12 12 -12 29v1452q0 15 12 29t29 14h1196q16 0 30 -13q13 -14 13 -30zM512 59l-332 -32q-41 0 -47 41l-127 1450q0 16 11 28t28 13l1194 104q17 0 29 -12t14 -27l18 -217
h-129l-10 119l-1020 -88l90 -1020l281 24v-383z" />
    <glyph glyph-name="uniF03D" unicode="PHOTOS" 
d="M1409 1280h340q43 0 43 -43v-1450q0 -43 -43 -43h-1194q-43 0 -43 43v342h1153v1024h-256v127zM1153 1665h-1024v-1024h1024v1024zM1237 256h-1194q-43 0 -43 43v1450q0 43 43 43h1194q43 0 43 -43v-1450q0 -43 -43 -43z" />
    <glyph glyph-name="uniF03E" unicode="PHOTO" 
d="M1466 383h-882q-31 0 -39 16t8 41l119 162q25 39 65 10l119 -80q37 -25 66 13l198 303q31 47 66 2l309 -410q16 -23 8 -40t-37 -17zM897 1023q0 -52 -39 -90t-91 -38t-89 38t-37 91t37 90t89 37t91 -38t39 -90zM1665 1407h-1282v-1151h1282v1151zM1792 1491v-1577
q0 -18 -12 -30t-31 -13h-1452q-41 0 -41 43v1577q0 43 41 43h1452q18 0 31 -12q12 -13 12 -31z" />
    <glyph glyph-name="uniF041" unicode="LOCATION" 
d="M1024 897q106 0 181 75t75 180t-75 181t-181 76t-181 -76t-75 -181t75 -180t181 -75zM1024 1792q201 0 374 -113t255 -305q53 -125 53 -264v-23q0 -105 -94 -312q-12 -26 -25 -48t-24 -45l-539 -940l-537 940q0 2 -12 24t-53 111q-72 141 -78 260l-2 33q0 160 62 293
t162 216q210 173 458 173z" />
    <glyph glyph-name="uniF044" unicode="COMPOSE" 
d="M509 170q-26 0 -60 23q-33 39 -17 98l182 442q2 7 10 17t7 12l749 749l387 -387l-749 -749q-2 0 -12 -7t-17 -10l-442 -182q-12 -6 -38 -6zM1622 -127q0 -53 -38 -91t-91 -38h-1364q-53 0 -91 38t-38 91v1536q0 53 38 90t91 37h1040l-260 -256h-653v-1280h1110v492
l256 251v-870zM2048 1444q0 -34 -25 -62l-137 -137l-385 385l137 137q25 25 62 25t57 -25l266 -266q25 -23 25 -57z" />
    <glyph glyph-name="uniF048" unicode="STEP&#x20;BACKWARD" 
d="M1536 1493v-1450q0 -25 -14 -25q-11 1 -21 9l-954 716q-15 7 -15 23t15 29l954 716q12 8 19 9q16 0 16 -27zM297 1536h172q15 0 29 -13t14 -30v-1452q0 -17 -13 -29t-30 -12h-172q-16 0 -29 12q-12 12 -12 29v1452q0 16 12 30q13 13 29 13z" />
    <glyph glyph-name="uniF051" unicode="STEP&#x20;FORWARD" 
d="M1513 768q0 -14 -14 -25l-954 -716q-10 -8 -21 -9q-14 0 -14 25v1450q0 27 16 27q3 -1 19 -9l954 -716q14 -13 14 -27zM1577 1536h172q15 0 29 -13t14 -30v-1452q0 -17 -13 -29t-30 -12h-172q-16 0 -29 12q-12 12 -12 29v1452q0 16 12 30q13 13 29 13z" />
    <glyph glyph-name="uniF055" unicode="ADD" 
d="M1153 897v340q0 15 -13 29t-30 14h-172q-16 0 -28 -13t-13 -30v-340h-344q-17 0 -29 -13t-12 -30v-172q0 -16 12 -28t29 -13h344v-344q0 -17 12 -29t29 -12h172q16 0 30 12q13 12 13 29v344h340q16 0 30 12q13 12 13 29v172q0 16 -13 30t-30 13h-340zM1028 1792
q266 0 502 -137t377 -375t141 -520t-146 -520t-380 -367t-513 -129t-517 148t-365 380t-127 510q0 276 146 514t381 367t501 129z" />
    <glyph glyph-name="uniF056" unicode="REMOVE" 
d="M1493 897h-940q-17 0 -29 -13t-12 -30v-172q0 -16 12 -28t29 -13h940q16 0 30 12q13 12 13 29v172q0 16 -13 30q-14 13 -30 13zM1028 1792q266 0 502 -137t377 -375t141 -520t-146 -520t-380 -367t-513 -129t-517 148t-365 380t-127 510q0 276 146 514t381 367t501 129z
" />
    <glyph glyph-name="uniF057" unicode="DELETE" 
d="M754 1202q-18 0 -31 -12l-121 -121q-29 -29 0 -59l242 -240l-244 -244q-29 -29 2 -59l121 -121q29 -29 57 0l244 242l244 -242q29 -29 57 0l121 121q31 31 2 59l-244 244l242 240q29 31 0 59l-121 121q-13 12 -31 12t-30 -12l-240 -240l-240 240q-12 12 -30 12z
M1028 1792q266 0 502 -137t377 -375t141 -520t-146 -520t-380 -367t-513 -129t-517 148t-365 380t-127 510q0 276 146 514t381 367t501 129z" />
    <glyph glyph-name="uniF058" unicode="VERIFIED" 
d="M1577 1024q0 51 -39 90q-35 39 -88 39t-90 -39l-422 -422l-168 166q-35 39 -88 39t-90 -39t-37 -90t37 -90l346 -344l600 600q39 39 39 90zM1024 -256q-39 0 -74 23l-166 114l-194 -18q-90 -6 -131 74l-84 182l-182 84q-80 41 -74 131l18 194l-114 166q-51 72 0 148
l114 166l-18 196q-6 88 74 129l182 84l84 182q18 37 54 57t77 17l194 -18l166 114q72 51 148 0l166 -114l196 18q88 4 129 -74l84 -182l182 -84q78 -41 74 -129l-18 -196l114 -166q51 -76 0 -148l-114 -166l18 -194q4 -90 -74 -131l-182 -84l-84 -182q-41 -80 -129 -74
l-196 18l-166 -114q-35 -23 -74 -23z" />
    <glyph glyph-name="uniF059" unicode="HELP" 
d="M1110 380q0 52 -39 90t-91 38t-89 -38t-37 -90t38 -90t89 -38t90 38t39 90zM1407 1050q0 142 -122 218t-265 76t-253 -89q-110 -88 -110 -231q0 -82 43 -138q44 -56 114 -56t109 32q38 33 38 89t-32 90t-73 34t-78 -16q12 63 58 98t116 35q68 0 119 -38t51 -116t-87 -188
t-100 -148t-15 -108h157q2 41 21 73q18 32 36 46t59 41q42 27 58 39q156 115 156 257zM1028 1792q266 0 502 -137t377 -375t141 -520t-146 -520t-380 -367t-513 -129t-517 148t-365 380t-127 510q0 276 146 514t381 367t501 129z" />
    <glyph glyph-name="uniF05E" unicode="FORBIDDEN" 
d="M1024 86q282 0 482 201t200 481q0 186 -92 346l-936 -934q158 -94 346 -94zM1024 1450q-282 0 -482 -201t-200 -481q0 -188 94 -346l934 936q-160 92 -346 92zM2048 768q0 -284 -143 -522t-377 -370t-513 -132q-277 0 -515 144t-369 378t-131 477q0 242 86 436
q166 375 557 536q186 77 381 77q307 0 566 -173t376 -454q82 -178 82 -397z" />
    <glyph glyph-name="uniF065" unicode="FULLSCREEN" 
d="M1024 1454q0 34 26 58t60 24h596q34 0 60 -26t26 -60v-596q0 -34 -25 -60t-59 -26t-61 23l-156 153l-643 -645l153 -154q23 -29 23 -63t-26 -58t-60 -24h-596q-34 0 -60 26t-26 60v596q0 34 25 60t59 26t61 -23l156 -153l643 645l-153 154q-23 29 -23 63z" />
    <glyph glyph-name="uniF066" unicode="REDUCE&#x20;VIDEO" 
d="M256 686q0 34 26 58t60 24h596q34 0 60 -26t26 -60v-596q0 -34 -25 -60t-59 -26t-61 23l-156 153l-152 -151q-25 -25 -59 -25t-59 25l-172 172q-25 25 -25 57t25 61l151 154l-153 154q-23 29 -23 63zM1792 850q0 -34 -26 -58t-60 -24h-596q-34 0 -60 26t-26 60v596
q0 34 25 60t59 26t61 -23l156 -153l152 151q25 25 59 25t59 -25l172 -172q25 -25 25 -57t-25 -61l-151 -154l153 -154q23 -29 23 -63z" />
    <glyph glyph-name="uniF067" unicode="EXPAND&#x20;VIDEO" 
d="M1024 82q0 -34 -26 -58t-60 -24h-596q-34 0 -60 26t-26 60v596q0 34 25 60t59 26t61 -23l156 -153l152 151q25 25 59 25t59 -25l172 -172q25 -25 25 -57t-25 -61l-151 -154l153 -154q23 -29 23 -63zM1024 1454q0 34 26 58t60 24h596q34 0 60 -26t26 -60v-596
q0 -34 -25 -60t-59 -26t-61 23l-156 153l-152 -151q-25 -25 -59 -25t-59 25l-172 172q-25 25 -25 57t25 61l151 154l-153 154q-23 29 -23 63z" />
    <glyph glyph-name="uniF068" unicode="MEETING" 
d="M1126 -16v596q0 34 26 60t60 26h596q35 0 61 -25q25 -25 25 -59t-22 -62l-154 -153l152 -154q24 -29 24 -61t-24 -58l-172 -172q-25 -24 -60 -24t-59 24l-152 152l-155 -154q-29 -22 -63 -22q-35 0 -59 26t-24 60zM240 666h596q34 0 60 -26t26 -60v-596q0 -35 -25 -61
q-25 -25 -59 -25t-62 22l-155 154l-152 -152q-25 -24 -59 -24t-60 24l-172 172q-24 25 -24 58t24 61l152 154l-154 153q-22 29 -22 63q0 35 26 59t60 24zM1808 870h-596q-34 0 -60 26t-26 60v596q0 35 25 61q25 25 59 25t62 -22l155 -154l152 152q25 24 59 24t60 -24
l172 -172q24 -25 24 -58t-24 -61l-152 -154l154 -153q22 -29 22 -63q0 -35 -26 -59t-60 -24zM922 1552v-596q0 -34 -26 -60t-60 -26h-596q-35 0 -61 25q-25 25 -25 59t22 62l154 153l-152 154q-24 29 -24 61t24 58l172 172q25 24 60 24t59 -24l152 -152l155 154q29 22 63 22
q35 0 59 -26t24 -60z" />
    <glyph glyph-name="uniF079" unicode="RETWEET" 
d="M1792 258h221q25 0 25 -14q0 -6 -10 -17l-349 -348q-18 -14 -30 -14t-31 14l-350 348q-10 14 -11 17q0 14 23 14h256v512h-512l-256 256h897q51 0 89 -38t38 -89v-641zM385 2q-53 0 -91 38t-38 91v639h-221q-23 0 -23 12t11 19l348 348q14 14 28 14t33 -14l348 -348
q8 -7 8 -19t-20 -12h-256v-512h512l256 -256h-895z" />
    <glyph glyph-name="uniF07D" unicode="DRAG&#x20;VERTICALY" 
d="M1024 -86q-32 0 -63 23l-422 430q-41 41 -21 92q12 21 29 37t51 16h170v512h-170q-56 0 -78 52t19 93l422 426q29 27 63 26t59 -26l428 -426q37 -41 19 -92q-23 -53 -80 -53h-170v-512h170q57 0 80 -53q18 -51 -19 -92l-428 -430q-27 -23 -59 -23z" />
    <glyph glyph-name="uniF07E" unicode="DRAG&#x20;HORIZONTALY" 
d="M1878 769q0 -38 -27 -64l-426 -422q-41 -41 -92 -21q-20 12 -26 21q-27 18 -27 59v170h-512v-170q0 -56 -52 -78t-93 19l-430 422q-23 29 -24 65t24 57l430 428q41 37 92 19q53 -23 53 -80v-170h512v170q0 57 53 80q55 20 92 -19l426 -428q27 -20 27 -58z" />
    <glyph glyph-name="uniF080" unicode="LINKEDIN&#x20;BUTTON" 
d="M305 51h303v973h-303v-973zM1100 51v504q10 131 52 180t130 49q158 0 158 -229v-504h303v596q0 131 -51 240q-45 84 -129 124t-174 40q-186 0 -281 -138l-21 -22v131h-290v-971h303zM457 1157q72 0 124 52t52 124t-52 124t-124 52t-124 -52t-52 -124t52 -124t124 -52z
M2048 1536v-1536q0 -106 -75 -181t-181 -75h-1536q-106 0 -181 75t-75 181v1536q0 106 75 181t181 75h1536q106 0 181 -75t75 -181z" />
    <glyph glyph-name="uniF081" unicode="TWITTER&#x20;BUTTON" 
d="M1567 1010v37q88 66 139 145q-72 -33 -158 -45q92 55 121 156q-88 -53 -178 -68q-84 88 -202 88q-117 0 -199 -82t-82 -201q0 -20 4 -61q-348 16 -576 293q-39 -66 -39 -144q0 -145 127 -231q-70 2 -129 33q0 -100 66 -178t160 -99q-45 -8 -65 -8t-36 2t-24 2
q24 -84 96 -138t164 -56q-156 -119 -348 -119q-47 0 -66 6q186 -129 428 -129q186 0 341 72q283 131 402 444q54 140 54 281zM0 0v1536q0 106 75 181t181 75h1536q106 0 181 -75t75 -181v-1536q0 -106 -75 -181t-181 -75h-1536q-106 0 -181 75t-75 181z" />
    <glyph glyph-name="uniF082" unicode="FACEBOOK&#x20;BUTTON" 
d="M1489 1200q74 0 133 -22l47 270q-92 33 -323 33q-178 0 -277 -133q-55 -72 -55 -293v-203h-170v-256h170v-852h-758q-106 0 -181 75t-75 181v1536q0 106 75 181t181 75h1536q106 0 181 -75t75 -181v-1536q0 -106 -75 -181t-181 -75h-436v852h252l20 256h-272v250
q0 98 133 98z" />
    <glyph glyph-name="uniF083" unicode="GOOGLE&#x20;PLUS" 
d="M678 211q268 0 268 192q0 68 -55 114q-23 19 -56 42q-33 22 -40 29q-39 10 -93 14q-106 0 -187 -57t-81 -138t70 -139t174 -57zM858 1065q-12 94 -72 161q-60 68 -131 70t-113 -61t-30 -157t72 -162t133 -71t113 61t28 159zM815 776q0 -26 33 -60t65 -57q74 -53 103 -107
t28 -134q0 -106 -99 -186t-262 -80t-273 60t-111 160q0 100 108 183q108 82 257 82h63q-49 49 -49 93t18 79q-12 -2 -34 -2q-125 0 -203 77q-78 76 -78 188t98 194t223 82h371l-84 -62h-117q56 -20 88 -80t31 -133q0 -113 -104 -192q-43 -35 -57 -57t-15 -48zM1716 1081
h-237v-235h-58v235h-237v60h237v235h58v-235h237v-60z" />
    <glyph glyph-name="uniF084" unicode="GOOGLE&#x20;PLUS&#x20;BUTTON" 
d="M743 131q-119 0 -197 66q-78 67 -79 157q0 90 92 155t213 64q61 -4 105 -14q39 -23 77 -54q39 -30 46 -39t21 -24t26 -51q2 -14 2 -43q-1 -217 -306 -217zM915 921q-47 -73 -128 -71t-149 80t-81 184q-14 106 33 178t129 70q83 -2 149 -79t80 -183t-33 -179zM772 1421
q-143 0 -254 -93q-110 -93 -110 -219t88 -214t229 -88q27 0 39 2q-20 -41 -20 -89t57 -106h-74q-170 0 -292 -93t-122 -208t125 -183t310 -69q186 -1 300 91t113 213q0 92 -33 153t-130 131t-97 112q0 43 15 67t65 63q119 90 119 219q0 84 -35 151t-98 91h131l94 69h-420z
M1655 1186v268h-66v-268h-270v-68h270v-268h66v268h270v68h-270zM256 1792h1536q106 0 181 -75t75 -181v-1536q0 -106 -75 -181t-181 -75h-1536q-106 0 -181 75t-75 181v1536q0 106 75 181t181 75z" />
    <glyph glyph-name="uniF085" unicode="INSTAGRAM" 
d="M2048 981v-981q0 -106 -75 -181t-181 -75h-1536q-106 0 -181 75t-75 181v981h512q-43 -98 -43 -213q0 -229 163 -392t392 -163t392 163t163 392q0 115 -43 213h512zM641 768q0 160 112 272q113 112 271 113q158 0 272 -114q114 -115 113 -273q0 -158 -114 -270
q-115 -112 -273 -113q-158 1 -270 113t-111 272zM0 1153v383q0 106 75 181t181 75h1536q106 0 181 -75t75 -181v-383h-623q-170 170 -401 170t-401 -170h-623z" />
    <glyph glyph-name="uniF091" unicode="WINNER&#x20;BADGE" 
d="M1366 1176v84q0 20 -23 20h-638q-23 0 -23 -20v-84q0 -236 88 -411t211 -204v-26q0 -115 -75 -197t-181 -82h598q-106 0 -181 82t-75 197v26q123 29 211 205t88 410zM2048 767q0 -40 -23 -73l-114 -166l18 -194q0 -96 -74 -131l-182 -84l-84 -182q-41 -74 -114 -74h-15
l-196 18l-166 -114q-31 -23 -73 -23t-75 23l-166 114l-194 -18h-15q-37 -1 -69 21t-47 53l-84 182l-182 84q-31 14 -53 47t-21 69v15l18 194l-114 166q-25 37 -24 77t24 71l114 166l-18 196v15q0 74 74 114l182 84l84 182q35 74 131 74l194 -18l166 114q33 23 75 21t73 -21
l166 -114l196 18q94 0 129 -74l84 -182l182 -84q74 -35 74 -129l-18 -196l114 -166q23 -35 23 -75z" />
    <glyph glyph-name="uniF099" unicode="TWITTER" 
d="M264 1210q0 88 47 168q129 -158 311 -252t386 -104q-4 49 -4 76q0 143 99 242q99 100 239 100t247 -107q115 18 215 82q-31 -119 -145 -190q104 20 190 57q-63 -98 -170 -176q0 -302 -149 -554q-78 -132 -188 -232t-272 -162q-162 -61 -353 -62q-289 0 -518 156
q23 -6 80 -6q233 0 421 143q-114 2 -200 69t-115 167l61 -7q20 0 89 11q-119 25 -196 119t-77 221q72 -43 158 -45q-72 49 -114 124q-42 74 -42 162z" />
    <glyph glyph-name="uniF09A" unicode="FACEBOOK" 
d="M1489 1200q-133 0 -133 -98v-250h272l-20 -256h-252v-852h-342v852h-170v256h170v203q0 221 55 293q98 133 277 133q231 0 323 -33l-47 -270q-59 22 -133 22z" />
    <glyph glyph-name="uniF09E" unicode="RSS" 
d="M453 0q-84 0 -142 58q-57 58 -57 142t58 139q58 56 140 56t140 -56q57 -56 57 -139q0 -84 -56 -142t-140 -58zM1071 0q-61 0 -105 45t-44 105q0 220 -148 372t-368 152q-59 0 -105 44q-45 44 -45 104t45 104t105 45q330 -1 572 -233t241 -588q0 -59 -43 -105
q-44 -45 -105 -45zM1796 150q0 -58 -42 -104t-103 -46t-106 45q-44 45 -44 105q0 220 -88 422q-178 410 -587 587q-202 88 -420 88q-59 0 -105 43q-45 42 -45 104t45 106t105 44q264 0 516 -104q529 -218 756 -728q118 -263 118 -562z" />
    <glyph glyph-name="uniF0A0" unicode="HARD&#x20;DRIVE" 
d="M1536 63q0 -27 -18 -45t-45 -18t-46 18q-18 18 -18 46t18 46q17 18 45 19t46 -19t18 -47zM1665 -86v299q0 19 -12 31t-31 12h-1196q-41 0 -41 -43v-299q0 -16 12 -28t29 -13h1196q16 0 30 12q13 13 13 29zM385 1792h1280q51 0 89 -38t38 -89v-1792q0 -53 -37 -91t-90 -38
h-1280q-53 0 -91 38t-38 91v1792q0 53 38 90t91 37z" />
    <glyph glyph-name="uniF0A3" unicode="FAVORITE&#x20;BADGE" 
d="M1024 1300q-14 0 -20 -18l-121 -321l-357 -23q-14 0 -21 -13t9 -26l293 -211l-107 -360q-10 -14 5 -23q16 -16 26 0l293 219l293 -219q2 -6 12 -6t14 6q14 8 5 23l-107 360l293 211q16 11 9 25t-21 14l-357 23l-121 321q-6 18 -20 18zM1024 -256q-39 0 -74 23l-166 114
l-194 -18q-90 -6 -131 74l-84 182l-182 84q-80 41 -74 131l18 194l-114 166q-51 72 0 148l114 166l-18 196q-6 88 74 129l182 84l84 182q18 37 54 57t77 17l194 -18l166 114q72 51 148 0l166 -114l196 18q88 4 129 -74l84 -182l182 -84q78 -41 74 -129l-18 -196l114 -166
q51 -76 0 -148l-114 -166l18 -194q4 -90 -74 -131l-182 -84l-84 -182q-41 -80 -129 -74l-196 18l-166 -114q-35 -23 -74 -23z" />
    <glyph glyph-name="uniF0AD" unicode="PARAMETER" 
d="M1774 1051q0 -197 -144 -339t-338 -143h-145q-131 0 -209 -77l-532 -531q-42 -43 -98 -43t-102 39t-46 103t41 106l532 530q78 76 78 209v146q0 195 141 339t340 144q86 0 185 -43l-285 -281l33 -227q39 -5 115 -15t114 -16l283 289q37 -121 37 -190z" />
    <glyph glyph-name="uniF0CA" unicode="BULLETLIST" 
d="M768 256h1024q51 0 90 -38t39 -90t-39 -90t-90 -38h-1024q-53 0 -90 38t-37 91t37 90t90 37zM385 256q53 0 90 -38t37 -90t-38 -91t-90 -39t-91 39t-39 91t39 90t92 38zM768 768h1024q51 0 90 -38t39 -90t-39 -90t-90 -38h-1024q-53 0 -90 38t-37 91t37 90t90 37z
M385 768q53 0 90 -38t37 -90t-38 -91t-90 -39t-91 39t-39 91t39 90t92 38zM1792 1024h-1024q-53 0 -90 38t-37 91t37 90t90 37h1024q51 0 90 -38t39 -90t-39 -90t-90 -38zM385 1280q53 0 90 -38t37 -90t-38 -91t-90 -39t-91 39t-39 91t39 90t92 38z" />
    <glyph glyph-name="uniF0CB" unicode="TODO" 
d="M768 256h1024q51 0 90 -38t39 -90t-39 -90t-90 -38h-1024q-53 0 -90 38t-37 91t37 90t90 37zM385 256q53 0 90 -38t37 -90t-38 -91t-90 -39t-91 39t-39 91t39 90t92 38zM768 768h1024q51 0 90 -38t39 -90t-39 -90t-90 -38h-1024q-53 0 -90 38t-37 91t37 90t90 37z
M299 768q0 38 25 62q24 24 60 24t60 -25t25 -61v-256q0 -57 -53 -80q-8 -6 -34 -6t-58 23l-297 303q-27 24 -27 58t27 60q23 27 59 27t59 -27l154 -151v49zM1792 1024h-1024q-53 0 -90 38t-37 91t37 90t90 37h1024q51 0 90 -38t39 -90t-39 -90t-90 -38zM299 1280q0 38 25 62
q24 24 60 24t60 -25t25 -61v-256q0 -57 -53 -80q-8 -6 -35 -6t-57 25l-297 301q-27 24 -27 58t27 60q23 27 59 27t59 -27l154 -151v49z" />
    <glyph glyph-name="uniF102" unicode="SLIDE&#x20;ACTIVE" 
d="M641 768q0 160 112 272q111 112 271 113q160 0 272 -113q112 -112 113 -272q0 -160 -113 -272q-112 -112 -272 -111q-160 -1 -272 111t-111 272z" />
    <glyph glyph-name="uniF103" unicode="SLIDE&#x20;INACTIVE" 
d="M768 768q0 106 75 181t181 75t181 -75t75 -181t-75 -181t-181 -75t-181 75t-75 181z" />
    <glyph glyph-name="uniF104" unicode="NAVIGATE&#x20;LEFT" 
d="M1069 768l391 -393l-243 -238l-627 631l627 631l243 -238z" />
    <glyph glyph-name="uniF105" unicode="NAVIGATE&#x20;RIGHT" 
d="M831 137l-241 238l389 393l-389 393l241 238l629 -631z" />
    <glyph glyph-name="uniF106" unicode="NAVIGATE&#x20;UP" 
d="M1655 575l-238 -241l-393 389l-393 -389l-238 241l631 629z" />
    <glyph glyph-name="uniF107" unicode="NAVIGATE&#x20;DOWN" 
d="M1024 813l393 391l238 -243l-631 -627l-631 627l238 243z" />
    <glyph glyph-name="uniF108" unicode="DESKTOP" 
d="M1919 1663h-1792v-1024h1792v1024zM86 1792h1876q34 0 60 -26t26 -60v-1237q0 -35 -26 -61t-60 -25h-682v-84q0 -43 39 -61l178 -91q39 -18 39 -61v-43q0 -19 -12 -31t-31 -12h-938q-18 0 -31 12q-12 12 -12 31v43q0 43 39 61l178 91q39 18 39 61v84h-682q-34 0 -60 26
t-26 60v1237q0 34 26 60t60 26z" />
    <glyph glyph-name="uniF109" unicode="LAPTOP" 
d="M385 383h1278v768h-1278v-768zM2048 86q0 -34 -26 -60t-60 -26h-1876q-34 0 -60 26t-26 60v41l256 254v813q0 34 26 60t60 26h1364q34 0 60 -26t26 -60v-813l256 -254v-41z" />
    <glyph glyph-name="uniF10A" unicode="TABLET" 
d="M1024 43q36 0 60 26q24 27 24 61t-25 58t-59 25q-34 0 -60 -25q-26 -26 -26 -60t26 -60t60 -25zM512 1792v-1536h1024v1536h-1024zM383 2048h1280q53 0 91 -38t38 -91v-1792q0 -53 -38 -90t-91 -37h-1280q-51 0 -89 37t-38 90v1792q0 53 37 91t90 38z" />
    <glyph glyph-name="uniF10B" unicode="RESPONSIVE" 
d="M1683 64q1 22 -21 22t-22 -22t22 -21q22 -1 21 21zM1407 895v-768h512v768h-512zM1343 1024h639q30 0 48 -18t18 -48v-895q0 -27 -19 -45t-47 -18h-639q-27 0 -45 18t-18 45v895q0 26 18 46t45 20zM1151 639v-576q0 -33 12 -63h-608q-18 0 -31 12q-12 12 -12 31v43
q0 43 39 61l178 91q39 18 39 61v84h-682q-34 0 -60 26t-26 60v1237q0 34 26 60t60 26h1876q34 0 60 -26t26 -60v-565q-25 10 -66 10h-63v512h-1792v-1024h1024z" />
    <glyph glyph-name="uniF10C" unicode="MOBILE" 
d="M1024 86q36 0 60 26t24 60t-25 60q-25 24 -59 24t-60 -25t-26 -59t26 -60t60 -26zM1407 1536h-766v-1151h766v1151zM598 1792h852q34 0 60 -26t26 -60v-1620q0 -34 -26 -60t-60 -26h-852q-34 0 -60 26t-26 60v1620q0 34 26 60t60 26z" />
    <glyph glyph-name="uniF110" unicode="LOADING" 
d="M897 -127v256q0 53 37 90t89 37t91 -38t39 -89v-256q0 -53 -39 -91t-91 -38t-89 38t-37 91zM1786 132q0 -52 -39 -89t-94 -37t-86 37l-183 182q-38 33 -38 87t38 95q40 40 92 40t91 -39l182 -183q37 -41 37 -93zM394 6q-56 0 -94 37t-38 91t37 91l182 183q35 38 88 38
t93 -37q38 -39 38 -93t-36 -91l-183 -182q-31 -37 -87 -37zM1665 897h256q51 0 89 -39t38 -91t-37 -89t-90 -37h-256q-53 0 -91 37t-38 89t38 91t91 39zM129 897h256q51 0 89 -39t38 -91t-37 -89t-90 -37h-256q-53 0 -91 37t-38 89t38 91t91 39zM1656 1530q52 0 91 -38
t39 -91t-37 -90l-182 -183q-37 -36 -89 -36t-92 36q-38 38 -38 92t36 91l183 182q37 37 89 37zM262 1400q0 52 37 91t91 39t91 -37l183 -182q38 -39 38 -91t-39 -91q-41 -38 -93 -38t-89 37l-182 183q-37 37 -37 89zM897 1409v256q0 53 37 90t89 37t91 -38t39 -89v-256
q0 -53 -39 -91t-91 -38t-89 38t-37 91z" />
    <glyph glyph-name="uniF112" unicode="REPLY" 
d="M43 1154q0 32 25 60l600 555q28 23 60 23t58 -26t25 -60v-256q358 -6 643 -204q286 -198 436 -504t158 -656h-170q-100 323 -274 472q-174 150 -475 192q-136 18 -318 18v-256q0 -34 -25 -60t-61 -26t-61 29l-598 637q-23 30 -23 62z" />
    <glyph glyph-name="uniF113" unicode="SEND" 
d="M2048 1152q0 -32 -23 -60l-598 -637q-25 -29 -55 -29t-39 6q-53 20 -53 80v256q-549 0 -785 -204q-182 -158 -282 -478h-170q8 350 159 656t435 504q285 198 643 204v256q0 57 51 78q51 24 90 -15l602 -555q25 -30 25 -62z" />
    <glyph glyph-name="uniF121" unicode="EMBED" 
d="M2048 768q0 -51 -37 -88l-383 -385q-37 -37 -91 -37t-92 38t-38 90t39 91l293 293l-293 293q-41 39 -39 90q0 51 38 90t92 39t91 -37l383 -385q37 -41 37 -92zM1140 1282q76 0 115 -54q25 -34 25 -64t-6 -50l-256 -768q-32 -88 -129 -88q-49 0 -85 38t-36 74t6 56
l256 768q14 40 47 64t63 24zM510 1282q51 0 92 -37q39 -43 39 -93t-39 -89l-293 -293l293 -293q35 -39 37 -91t-36 -90t-91 -38t-90 37l-385 385q-37 37 -37 90t37 90l385 385q37 37 88 37z" />
    <glyph glyph-name="uniF124" unicode="LOCATE" 
d="M279 768q0 8 16 14l1458 736q12 4 14 4q12 0 13 -13q0 -2 -4 -14l-736 -1458q-6 -16 -14 -17q-8 0 -14 17l-129 536q-16 35 -52 52l-536 129q-16 6 -16 14z" />
    <glyph glyph-name="uniF130" unicode="MIC&#x20;ACTIVE" 
d="M1409 768v256q0 51 37 90t89 39t91 -39t39 -90v-256q0 -125 -51 -250q-107 -240 -340 -338q-49 -20 -121 -39v-268q0 -53 -39 -91t-91 -38t-89 38t-37 91v268q-338 82 -461 377q-51 117 -51 250v256q0 51 37 90t89 39t91 -39t39 -90v-256q0 -158 113 -270
q112 -112 270 -113q158 1 272 113t113 270zM1280 1536v-768q0 -106 -75 -181t-181 -75t-181 75t-75 181v768q0 106 75 181t181 75t181 -75t75 -181z" />
    <glyph glyph-name="uniF131" unicode="MIC&#x20;INACTIVE" 
d="M1153 -127q0 -53 -39 -91t-91 -38t-89 38t-37 91v268q-238 57 -375 233t-137 394v221l256 -258q13 -137 111 -235t235 -111l227 -229q-58 -15 -61 -15v-268zM2048 -129q0 -51 -37 -89t-82 -38t-84 23q-1794 1796 -1800 1798q-45 45 -45 98t37 91t91 38t91 -37l549 -551
v332q0 106 75 181t181 75t181 -75t75 -181v-768q0 -39 -8 -66l98 -100q39 82 39 166v256q0 51 37 90t89 39t91 -39t39 -90v-256q0 -180 -106 -352l452 -453q37 -41 37 -92z" />
    <glyph glyph-name="uniF143" unicode="RSS&#x20;BUTTON" 
d="M549 121q70 0 117 48t47 118q0 71 -47 117t-117 46t-118 -46q-48 -48 -48 -116t48 -118q48 -49 118 -49zM1064 121q50 0 87 38t37 87q0 296 -202 490t-476 194q-49 0 -87 -37t-38 -87t38 -87t87 -37q182 0 306 -126t124 -310q0 -49 37 -87t87 -38zM1548 121q51 0 86 37
t35 88q0 248 -98 468t-260 370t-371 236q-209 87 -430 87q-49 0 -87 -37t-38 -87t38 -87t87 -37q244 0 455 -124t335 -335t123 -454q0 -49 37 -87t88 -38zM256 1792h1536q106 0 181 -75t75 -181v-1536q0 -106 -75 -181t-181 -75h-1536q-106 0 -181 75t-75 181v1536
q0 106 75 181t181 75z" />
    <glyph glyph-name="uniF144" unicode="PLAY&#x20;VIDEO" 
d="M1614 770l-889 512v-1026zM1028 1792q266 0 502 -137t377 -375t141 -520t-146 -520t-380 -367t-513 -129t-517 148t-365 380t-127 510q0 276 146 514t381 367t501 129z" />
    <glyph glyph-name="uniF145" unicode="PAUSE&#x20;VIDEO" 
d="M1409 342v852h-342v-852h342zM981 342v852h-340v-852h340zM1028 1792q266 0 502 -137t377 -375t141 -520t-146 -520t-380 -367t-513 -129t-517 148t-365 380t-127 510q0 276 146 514t381 367t501 129z" />
    <glyph glyph-name="uniF146" unicode="LIVE" 
d="M1374 1133v-756h201v86h-115v262h82v82h-82v244h115v82h-201zM1171 1133l-41 -453l-34 453h-88l75 -756h91l83 756h-86zM797 1133v-756h86v756h-86zM590 465v668h-88v-756h194v88h-106zM1028 1792q266 0 502 -137t377 -375t141 -520t-146 -520t-380 -367t-513 -129
t-517 148t-365 380t-127 510q0 276 146 514t381 367t501 129z" />
    <glyph glyph-name="uniF147" unicode="HD" 
d="M1436 989q84 0 124 -48t39 -130q-1 -131 -71 -209t-189 -78h-125l101 465h121zM1333 385q156 0 258 73t148 199q25 86 24 179q0 293 -315 292h-268l-158 -743h311zM1059 1128h-166l-59 -286h-306l64 286h-166l-156 -743h166l64 320h303l-70 -320h168zM129 1536h1792
q53 0 90 -37t37 -90v-1280q0 -53 -37 -91t-90 -38h-1792q-53 0 -91 38t-38 91v1280q0 53 38 90t91 37z" />
    <glyph glyph-name="uniF148" unicode="SD" 
d="M1409 991q162 0 162 -178q0 -125 -69 -206t-191 -81h-125l96 465h127zM1307 387q156 0 258 74t141 198q29 90 29 179q0 141 -80 217t-236 75h-270l-156 -743h314zM305 633q0 -264 296 -264q144 0 232 64q87 65 87 170t-52 149t-149 71q-49 -1 -95 19q-81 35 -81 84
q0 94 131 94t131 -102v-11h156q0 121 -79 181t-198 61q-119 0 -208 -56t-89 -175q0 -82 57 -140q74 -57 196 -85t122 -93q0 -53 -43 -78t-98 -24q-160 0 -160 120v15h-156zM129 1536h1792q53 0 90 -37t37 -90v-1280q0 -53 -37 -91t-90 -38h-1792q-53 0 -91 38t-38 91v1280
q0 53 38 90t91 37z" />
    <glyph glyph-name="uniF149" unicode="LIVE&#x20;BROADCASTING" 
d="M1462 1151l-123 -764h312l20 135h-164l31 197h111l18 117h-111l29 182h164l20 133h-307zM991 1151v-764h142l249 764h-137l-133 -485l21 485h-142zM758 1151l-119 -764h145l121 764h-147zM442 518l99 633h-144l-123 -764h299l25 131h-156zM129 1536h1792q53 0 90 -37
t37 -90v-1280q0 -53 -37 -91t-90 -38h-1792q-53 0 -91 38t-38 91v1280q0 53 38 90t91 37z" />
    <glyph glyph-name="uniF14A" unicode="LIKE" 
d="M45 897h428q17 0 29 -12t12 -31v-811q0 -43 -41 -43h-299q-39 0 -43 37l-129 809q-2 18 10 34t33 17zM1411 1024h598q41 0 41 -43v-256q0 -20 -10 -31l-31 -28v-240q0 -8 -12 -29l-31 -30v-197q0 -10 -14 -29l-125 -129q-10 -12 -33 -12h-852l-20 2q-60 32 -136 58
t-96 26t-33 14q-14 6 -14 29v596q0 15 12 29t31 14q59 0 88 63q14 27 37 91q35 127 96 211q8 18 29 43q61 88 99 152t79 184t41 237q0 18 16 35q18 12 43 6q66 -27 117 -88q111 -123 49 -307q-92 -268 -43 -344q27 -27 74 -27z" />
    <glyph glyph-name="uniF14B" unicode="DISLIKE" 
d="M1411 512q-37 0 -74 -25q-49 -80 43 -346q61 -184 -49 -307q-51 -61 -117 -88q-25 -6 -43 6q-16 16 -16 35q0 117 -41 237t-79 184q-39 64 -79 121q-40 56 -49 74q-61 88 -96 211q-23 63 -37 91q-29 63 -88 63q-18 0 -30 13t-13 30v598q0 20 14 27q12 14 33 14
q22 0 96 26t136 58l20 2h850q23 0 33 -10l125 -131q14 -18 14 -29v-197l31 -30q12 -20 12 -29v-240l31 -28q10 -10 10 -31v-256q0 -43 -41 -43h-596zM45 1536h428q41 0 41 -43v-811q0 -16 -11 -28t-30 -13h-299q-39 0 -43 37l-129 809q-2 17 10 33t33 16z" />
    <glyph glyph-name="uniF14D" unicode="SHAREALT" 
d="M1550 426q128 0 228 -100t100 -240t-100 -242q-100 -100 -242 -100t-242 100t-100 242v45l-643 369q-86 -74 -218 -74t-233 100q-100 100 -100 242t100 242t230 100t221 -74l643 369v45q0 142 100 242t242 100t242 -100t100 -240t-100 -242q-100 -100 -228 -100t-225 70
l-645 -367q2 -14 2 -45t-2 -49l643 -363q100 70 227 70z" />
    <glyph glyph-name="uniF14E" unicode="USER&#x20;MALE" 
d="M319 0q-63 0 -63 84q0 48 31 100l108 187q29 53 94 67l89 19l16 2q55 0 88 -37l299 -332q18 -20 43 -20t43 20l299 332q33 37 88 37l16 -2l89 -19q63 -14 94 -67l106 -187q33 -56 33 -102q0 -82 -63 -82h-1410zM854 618q0 61 -64 160q-64 100 -99 208q-34 108 -34 181
q1 189 103 287t271 98t264 -102t95 -277t-147 -434q-49 -86 -49 -126t37 -75q12 -13 12 -16q-1 -29 -69 -80t-151 -51t-152 51t-68 80q0 8 8 10q16 10 30 35q13 25 13 51z" />
    <glyph glyph-name="uniF14F" unicode="USER&#x20;FEMALE" 
d="M319 0q-63 0 -63 81q0 45 31 103l108 187q31 55 94 67l89 19q28 4 58 -5t46 -30l299 -332q18 -20 43 -20t43 20l299 332q16 20 47 30t57 5l89 -19q63 -12 94 -67l106 -187q33 -56 33 -102q0 -82 -63 -82h-1410zM1194 610q0 -20 13 -44t30 -34q31 -12 -39 -71l-47 -35
q-53 -35 -128 -35t-128 35q-126 84 -79 110q11 6 25 31q13 25 13 43t-6 37q-176 25 -273 80q-43 27 -20 41q63 33 92 124t15 218q-16 72 -7 134q11 62 19 82q37 86 102 139q64 53 118 70t130 17t128 -17t120 -69t102 -140q8 -22 18 -82t-6 -134q-14 -129 14 -219t93 -123
q37 -18 -57 -59q-104 -43 -236 -62q-6 -18 -6 -37z" />
    <glyph glyph-name="uniF150" unicode="USERS" 
d="M59 0q-49 0 -51 51q0 51 27 96l84 150q25 43 76 55l71 13q49 12 84 -27l238 -266q14 -14 34 -14t35 14q231 262 238 270q23 18 53 16t47 -24l293 -334h-1229zM2048 320q0 -64 -51 -64h-721l-219 252q-21 24 -19 52t24 47t51 17q30 -2 50 -22l246 -283q33 -23 59 9
l238 266q35 39 84 27l72 -13q50 -12 75 -55l86 -150q25 -49 25 -83zM624 307q-60 0 -104 29q-80 53 -71 80q0 4 4 6q33 14 33 65t-68 156q-68 100 -86 240q-6 55 4 121t30 100t67 70q133 101 292 49q43 -14 87 -49t66 -70q22 -34 31 -100q10 -66 4 -121q-18 -139 -86 -241
q-67 -102 -67 -154t33 -66q27 -14 -37 -66l-31 -20q-41 -29 -101 -29zM1433 569q-60 0 -102 29q-80 51 -74 78q1 4 7 6q80 44 -35 223q-27 41 -52 112q-26 71 -34 126q-14 141 35 223q22 35 66 70q126 101 292 49q41 -14 87 -49t67 -70q49 -82 34 -223q-20 -137 -106 -269
q-48 -72 -48 -123q0 -50 34 -69q25 -10 -35 -59l-33 -25q-43 -29 -103 -29z" />
    <glyph glyph-name="uniF151" unicode="COMMENT" 
d="M2052 893q0 -265 -263 -453t-636 -188q-76 0 -143 6q-213 -176 -463 -240q-21 -8 -61 -14t-54 -10q-37 -6 -51 39q-2 27 29 57q83 83 119 145q35 61 65 156q-158 90 -249 221t-91 281q0 265 263 453t636 188q244 0 451 -86q208 -86 328 -234t120 -321z" />
    <glyph glyph-name="uniF152" unicode="WORK" 
d="M1266 1280l-66 129h-352l-66 -129h484zM1921 1280q53 0 90 -38t37 -89v-1024q0 -53 -37 -91t-90 -38h-1792q-53 0 -91 38t-38 91v1024q0 53 38 90t91 37h369l155 313q41 72 115 72h512q74 0 115 -72l155 -313h371z" />
    <glyph glyph-name="uniF153" unicode="CHARTS" 
d="M512 725v-682q0 -43 -43 -43h-426q-43 0 -43 43v682q0 43 43 43h426q43 0 43 -43zM2048 1239v-1196q0 -43 -43 -43h-426q-43 0 -43 43v1196q0 41 43 41h426q43 0 43 -41zM1280 1495v-1452q0 -43 -43 -43h-426q-43 0 -43 43v1452q0 41 43 41h426q43 0 43 -41z" />
    <glyph glyph-name="uniF154" unicode="NOTE&#x20;DISABLE" 
d="M426 944l475 -471q-250 -59 -475 -65q-29 -92 -53 -152h235l-608 -512q80 688 426 1200zM2048 1792v-127q0 -262 -141 -508q0 -4 -4 -4h-453l285 -219q-158 -170 -402 -297l678 -674q37 -37 37 -90t-38 -91t-90 -38t-91 37l-1792 1792q-37 39 -37 92t38 90t91 37t90 -37
l481 -481q248 246 570 382t651 136h127z" />
    <glyph glyph-name="uniF155" unicode="COMPOSE&#x20;NOTE" 
d="M1536 0v557q50 29 126 87t130 108v-879q0 -53 -37 -91t-90 -38h-1401l305 256h967zM256 1536v-541q-168 -266 -203 -383q-2 -8 -22 -57t-31 -78v1188q0 53 38 90t91 37h1026q-221 -100 -416 -256h-483zM2048 1792v-127q0 -256 -139 -504h-373l240 -186
q-109 -119 -242 -215q-238 -166 -541 -262q-285 -84 -567 -90q-29 -92 -53 -152h235l-608 -512q23 289 124 584t276 559q176 264 400 470q224 205 516 323t605 112h127z" />
    <glyph glyph-name="uniF156" unicode="NOTE" 
d="M2048 1792v-127q0 -256 -139 -504h-373l240 -186q-109 -119 -242 -215q-238 -166 -541 -262q-285 -84 -567 -90q-29 -92 -53 -152h235l-608 -512q23 289 124 584t276 559q176 264 400 470q224 205 516 323t605 112h127z" />
    <glyph glyph-name="uniF158" unicode="PIN" 
d="M170 754q0 354 250 604t604 250t604 -250t250 -604q0 -302 -190 -536t-482 -298l-166 -326q0 -14 -16 -14t-16 14l-166 326q-292 62 -482 296t-190 538z" />
    <glyph glyph-name="uniF159" unicode="ATTACH" 
d="M1496 1792q230 0 388 -164q164 -158 164 -383t-164 -399l-41 -43q-39 -39 -91 -39t-89 38t-37 93t35 90l43 41q88 82 88 207t-91 214t-211 89t-208 -88l-938 -938q-88 -88 -88 -212t90 -211t211 -87t209 88l489 492q25 24 25 60t-26 60t-62 25q-36 0 -57 -25l-490 -493
q-39 -39 -91 -39t-91 39t-39 91t39 91l489 494q102 96 242 96t240 -101q102 -100 102 -240t-100 -241l-488 -491q-158 -162 -389 -162t-395 165t-164 393t162 390l940 936q164 164 394 164z" />
    <glyph glyph-name="uniF15A" unicode="AUDIO&#x20;OFF" 
d="M1919 512q0 -51 -35 -90q-41 -37 -93 -37t-89 37l-166 168l-166 -168q-37 -37 -90 -37t-91 38t-38 89t39 90l164 166l-164 166q-39 39 -39 90t39 90t90 39t90 -39l166 -166l166 166q39 39 91 39t89 -39t37 -90t-35 -90l-168 -166l168 -166q35 -39 35 -90zM768 1366v-1196
q0 -16 -10 -22t-25 6l-442 333q-41 25 -78 25h-170q-43 0 -43 43v426q0 43 43 43h170q39 0 78 27l442 331q14 10 25 6q10 -5 10 -22z" />
    <glyph glyph-name="uniF15B" unicode="AUDIO&#x20;ON&#x20;ALT" 
d="M1237 768q0 -144 -98 -242q-60 -53 -121 0q-25 27 -25 62t23 61q51 45 51 119t-51 119q-23 27 -23 61t23 62q28 22 62 22t61 -22q98 -98 98 -242zM1622 768q0 -252 -174 -422q-24 -24 -60 -24t-61 24t-24 62q0 37 26 59q121 121 121 301t-121 301q-27 27 -27 61t27 60
q23 27 57 28t60 -26q176 -172 176 -424zM768 1366v-1196q0 -16 -10 -22t-25 6l-442 333q-41 25 -78 25h-170q-43 0 -43 43v426q0 43 43 43h170q39 0 78 27l442 331q14 10 25 6q10 -5 10 -22zM2005 768q0 -174 -68 -332q-61 -152 -180 -270q-31 -25 -61 -25t-60 25
q-26 24 -26 60t26 61q199 203 199 485t-199 479q-27 23 -26 60q0 37 24 61t60 25q35 0 61 -25q119 -118 185 -274t65 -330z" />
    <glyph glyph-name="uniF15D" unicode="UNLOCK" 
d="M598 0h170q34 0 60 27t26 51t-6 39l-82 202q88 53 88 150q0 72 -50 122t-121 50t-121 -51t-50 -121q0 -98 88 -150l-82 -202q-6 -14 -6 -41q0 -28 26 -52t60 -24zM938 938v342q0 212 153 362t363 150t358 -152q150 -150 150 -360v-342q0 -53 -37 -90t-90 -37t-91 37
t-38 90v342q0 106 -76 181t-181 75t-180 -75t-75 -181v-342q72 0 122 -50t50 -120v-854q0 -70 -51 -120t-121 -50h-1024q-70 0 -120 50t-50 120v854q0 70 50 120t120 50h768z" />
    <glyph glyph-name="uniF15E" unicode="NOTIFICATION" 
d="M768 127h512q0 -106 -75 -181t-181 -75t-181 75t-75 181zM1536 1024v-385q0 -53 38 -90t91 -37t90 -38t37 -90t-38 -90t-89 -38h-1280q-53 0 -91 37t-38 90t38 91t91 38t90 37t37 90v385q0 178 109 316t276 180v16q0 53 37 90t90 37t91 -37t38 -90q0 -10 -2 -16
q169 -42 277 -180t108 -316z" />
    <glyph glyph-name="uniF15F" unicode="NOTIFICATION&#x20;OFF" 
d="M768 127h512q0 -106 -75 -181t-181 -75t-181 75t-75 181zM383 256q-51 0 -89 38t-38 90t37 90t90 38t91 37t38 90v221l604 -604h-733zM1024 1663q53 0 90 -37t37 -90v-16q169 -42 277 -180t108 -316v-385q0 -53 37 -90t90 -37t91 -38t38 -84t-24 -79t-60 -47l303 -301
q37 -39 37 -91t-37 -91q-39 -37 -92 -37t-90 37l-1792 1792q-37 39 -37 91t37 91q39 37 91 37t91 -37l408 -409q109 135 270 174l-2 16q0 53 38 90t91 37z" />
    <glyph glyph-name="uniF200" unicode="SWIPE&#x20;HORIZONTALY" 
d="M1622 854v-256q0 -18 -8 -47l-172 -465q-35 -86 -119 -86h-256q-80 0 -111 68l-256 471q-20 35 -15 77t34 72l178 176v715q0 53 37 90t89 37t91 -37t39 -90v-465l383 -141q38 -12 62 -45t24 -74zM1536 1407h-127q-53 0 -91 38t-38 91t38 90t91 37h127v221q0 16 8 20
t25 -10l452 -329q33 -33 2 -64l-454 -330q-12 -12 -23 -7q-10 5 -10 20v223zM512 1407v-223q0 -14 -10 -20t-23 7l-454 330q-31 31 2 64l452 329q33 29 33 -10v-221h127q53 0 91 -37t38 -90t-38 -91t-91 -38h-127z" />
    <glyph glyph-name="uniF201" unicode="TAP" 
d="M1622 854v-256q0 -18 -8 -47l-172 -465q-35 -86 -119 -86h-256q-80 0 -111 68l-256 471q-20 35 -15 77t34 72l178 176v715q0 53 37 90t89 37t91 -37t39 -90v-465l383 -141q38 -12 62 -45t24 -74zM739 1310q-1 -22 -25 -48t-61 -25q-69 0 -105 99t-36 200q0 208 151 360
t361 152t360 -152q152 -152 152 -360q0 -98 -38 -198t-103 -101q-37 0 -62 27q-44 48 -14 102q47 84 47 170q0 142 -100 242t-242 100t-242 -100t-100 -242q0 -86 47 -170q10 -34 10 -56z" />
    <glyph glyph-name="uniF202" unicode="SWIPE&#x20;VERTICALY" 
d="M1622 854v-256q0 -18 -8 -47l-172 -465q-35 -86 -119 -86h-256q-80 0 -111 68l-256 471q-20 35 -15 77t34 72l178 176v715q0 53 37 90t89 37t91 -37t39 -90v-465l383 -141q38 -12 62 -45t24 -74zM512 1280h221q13 0 19 -9t-7 -26l-329 -452q-31 -31 -64 0l-329 454
q-14 14 -10 24q5 9 22 9h221v256h-223q-16 0 -21 10q-4 10 11 25l329 450q33 35 64 4l329 -454q12 -12 8 -24q-5 -11 -20 -11h-221v-256z" />
    <glyph glyph-name="uniF203" unicode="GESTURE" 
d="M1622 854v-256q0 -18 -8 -47l-172 -465q-35 -86 -119 -86h-256q-80 0 -111 68l-256 471q-20 35 -15 77t34 72l178 176v715q0 53 37 90t89 37t91 -37t39 -90v-465l383 -141q38 -12 62 -45t24 -74z" />
    <glyph glyph-name="uniF204" unicode="SWIPE&#x20;RIGHT" 
d="M1878 854v-256q0 -18 -8 -47l-172 -465q-35 -86 -119 -86h-256q-80 0 -111 68l-256 471q-20 35 -15 77t34 72l178 176v715q0 53 37 90t89 37t91 -37t39 -90v-465l383 -141q38 -12 62 -45t24 -74zM512 1280h-127q-53 0 -91 38t-38 91t38 90t91 37h127v221q0 17 8 21
t25 -11l452 -329q33 -33 2 -64l-454 -330q-12 -12 -23 -7q-10 5 -10 20v223z" />
    <glyph glyph-name="uniF205" unicode="SWIPE&#x20;LEFT" 
d="M1366 854v-256q0 -18 -8 -47l-172 -465q-35 -86 -119 -86h-256q-80 0 -111 68l-256 471q-20 35 -15 77t34 72l178 176v715q0 53 37 90t89 37t91 -37t39 -90v-465l383 -141q38 -12 62 -45t24 -74zM1536 1280v-223q0 -13 -10 -19t-23 6l-454 330q-31 31 2 64l452 329
q33 29 33 -10v-221h127q53 0 91 -37t38 -90t-38 -91t-91 -38h-127z" />
    <glyph glyph-name="uniF206" unicode="SWIPE&#x20;UP" 
d="M1622 854v-256q0 -18 -8 -47l-172 -465q-35 -86 -119 -86h-256q-80 0 -111 68l-256 471q-20 35 -15 77t34 72l178 176v715q0 53 37 90t89 37t91 -37t39 -90v-465l383 -141q38 -12 62 -45t24 -74zM512 1280v-127q-2 -53 -39 -90t-90 -38t-90 37t-37 93v125h-221
q-16 0 -21 9q-4 9 11 24l329 452q35 35 64 2l330 -454q12 -9 6 -21t-19 -12h-223z" />
    <glyph glyph-name="uniF207" unicode="SWIPE&#x20;DOWN" 
d="M1622 854v-256q0 -18 -8 -47l-172 -465q-35 -86 -119 -86h-256q-80 0 -111 68l-256 471q-20 35 -15 77t34 72l178 176v715q0 53 37 90t89 37t91 -37t39 -90v-465l383 -141q38 -12 62 -45t24 -74zM512 1534h223q13 2 19 -11t-6 -24l-330 -455q-29 -33 -64 3l-329 452
q-28 32 10 37h221v121q0 55 37 93t90 37t90 -38t39 -90v-125z" />
    <glyph glyph-name="uniF208" unicode="SPREAD" 
d="M2005 854v-256q0 -27 -8 -45l-170 -469q-14 -40 -47 -62t-74 -22h-256q-57 0 -96 45l-555 639q-35 39 -31 93t45 88t93 31t87 -44l129 -145l158 157v715q0 51 38 89t90 38t90 -37t38 -90v-465l385 -141q84 -31 84 -119zM426 1919h428q16 0 28 -12t13 -31v-426
q0 -41 -29 -12l-139 139l-256 -256l139 -139q12 -12 10 -22q-3 -9 -22 -9h-426q-18 0 -31 13q-12 13 -12 30v428q0 16 9 20t22 -8l139 -141l256 256l-141 139q-12 12 -8 22t20 9z" />
    <glyph glyph-name="uniF209" unicode="PINCH" 
d="M512 1491v-426q0 -17 -9 -21t-22 9l-139 141l-129 -127l-170 168l127 131l-141 139q-12 12 -9 21q4 8 23 8h426q16 0 30 -12q13 -13 13 -31zM2005 854v-256q0 -27 -8 -45l-170 -469q-14 -40 -47 -62t-74 -22h-256q-57 0 -96 45l-555 639q-35 39 -31 93t45 88t93 31
t87 -44l129 -145l158 157v715q0 51 38 89t90 38t90 -37t38 -90v-465l385 -141q84 -31 84 -119zM981 1536h-426q-18 0 -31 12q-12 12 -12 31v426q0 18 9 21t22 -9l139 -139l129 127l170 -170l-127 -129l139 -139q12 -11 9 -21t-21 -10z" />
    <glyph glyph-name="uniF210" unicode="KEY&#x20;UP" 
d="M641 639v-256h-129v256h-129l195 428l190 -428h-127zM1663 1663h-1536v-1536h1536v1536zM0 129v1536q0 51 36 88t87 39h1540q53 0 91 -38t38 -91v-1536q0 -53 -38 -90t-91 -37h-1534q-53 0 -91 38t-38 91z" />
    <glyph glyph-name="uniF211" unicode="KEY&#x20;DOWN" 
d="M512 768v256h129v-256h127l-190 -428l-195 428h129zM1663 1663h-1536v-1536h1536v1536zM0 129v1536q0 51 36 88t87 39h1540q53 0 91 -38t38 -91v-1536q0 -53 -38 -90t-91 -37h-1534q-53 0 -91 38t-38 91z" />
    <glyph glyph-name="uniF212" unicode="KEY&#x20;LEFT" 
d="M768 768h256v-129h-256v-129l-428 195l428 190v-127zM1663 1663h-1536v-1536h1536v1536zM0 129v1536q0 51 36 88t87 39h1540q53 0 91 -38t38 -91v-1536q0 -53 -38 -90t-91 -37h-1534q-53 0 -91 38t-38 91z" />
    <glyph glyph-name="uniF213" unicode="KEY&#x20;RIGHT" 
d="M637 639h-256v129h256v127l428 -190l-428 -195v129zM1663 1663h-1536v-1536h1536v1536zM0 129v1536q0 51 36 88t87 39h1540q53 0 91 -38t38 -91v-1536q0 -53 -38 -90t-91 -37h-1534q-53 0 -91 38t-38 91z" />
    <glyph glyph-name="uniF220" unicode="PRESSED&#x20;KEY&#x20;UP" 
d="M512 639v-256h129v256h127l-190 428l-195 -428h129zM1663 1792q53 0 91 -38t38 -91v-1536q0 -53 -38 -90t-91 -37h-1534q-53 0 -91 38t-38 91v1536q0 51 36 88t87 39h1540z" />
    <glyph glyph-name="uniF221" unicode="PRESSED&#x20;KEY&#x20;DOWN" 
d="M641 768v256h-129v-256h-129l195 -428l190 428h-127zM1663 1792q53 0 91 -38t38 -91v-1536q0 -53 -38 -90t-91 -37h-1534q-53 0 -91 38t-38 91v1536q0 51 36 88t87 39h1540z" />
    <glyph glyph-name="uniF222" unicode="PRESSED&#x20;KEY&#x20;LEFT" 
d="M768 639h256v129h-256v127l-428 -190l428 -195v129zM1663 1792q53 0 91 -38t38 -91v-1536q0 -53 -38 -90t-91 -37h-1534q-53 0 -91 38t-38 91v1536q0 51 36 88t87 39h1540z" />
    <glyph glyph-name="uniF223" unicode="PRESSED&#x20;KEY&#x20;RIGHT" 
d="M637 768h-256v-129h256v-129l428 195l-428 190v-127zM1663 1792q53 0 91 -38t38 -91v-1536q0 -53 -38 -90t-91 -37h-1534q-53 0 -91 38t-38 91v1536q0 51 36 88t87 39h1540z" />
    <glyph glyph-name="uniF230" unicode="SWITCH&#x20;INACTIVE" 
d="M514 147q152 0 260 108q108 107 107 259q0 152 -108 260q-107 108 -259 107q-152 0 -260 -108q-108 -107 -107 -259q-1 -152 107 -260t260 -107zM512 1024h1022q212 0 362 -150t150 -360t-148 -362t-364 -152h-1022q-212 0 -362 150t-150 362t150 362t362 150z" />
    <glyph glyph-name="uniF231" unicode="SWITCH&#x20;ACTIVE" 
d="M1536 147q152 0 260 108q108 107 107 259q0 152 -108 260q-107 108 -259 107q-152 0 -260 -108q-108 -107 -107 -259q-1 -152 107 -260t260 -107zM1534 1024q212 0 362 -150t150 -358t-146 -356q-146 -147 -366 -160h-1022q-212 0 -362 150t-150 362t150 360t362 152
h1022z" />
    <glyph glyph-name="uniF250" unicode="TICKETS" 
d="M641 768h1022q53 0 91 -38t38 -91v-127q-53 0 -90 -38t-37 -91t37 -90t90 -37v-129q0 -53 -38 -90t-91 -37h-1022q-53 0 -91 37t-38 90v129q53 0 90 37t37 90t-37 91t-90 38v127q0 53 38 91t91 38zM641 895q-106 0 -181 -75t-75 -181v-127q-53 0 -90 -37l-86 84
q-37 37 -37 91t37 91l723 723q37 37 91 37t91 -37l90 -90q-37 -37 -37 -89t39 -91t90 -39t90 37l91 -90q37 -37 37 -90t-39 -92l-29 -25h-805z" />
    <glyph glyph-name="uniF251" unicode="CREDIT&#x20;CARD" 
d="M1792 256v-127q0 -129 -129 -129h-1534q-129 0 -129 129v127h1792zM0 512v639q0 129 129 129h1534q129 0 129 -129v-639h-1792z" />
    <glyph glyph-name="uniF253" unicode="AUDIO&#x20;ON" 
d="M1395 768q0 -215 -152 -360q-37 -37 -91 -37t-91 38t-37 90t37 91q78 72 78 178t-78 180q-37 39 -37 90t37 90q39 39 91 39t91 -39q152 -145 152 -360zM768 1366v-1196q0 -16 -10 -22t-25 6l-442 333q-41 25 -78 25h-170q-43 0 -43 43v426q0 43 43 43h170q39 0 78 27
l442 331q14 10 25 6q10 -5 10 -22zM1907 768q0 -202 -80 -397q-86 -190 -223 -328q-34 -37 -90 -37t-93 37q-35 39 -35 91t35 91q229 223 229 543t-229 543q-35 39 -35 91t35 91q41 37 92 37t91 -37q137 -138 223 -328q80 -195 80 -397z" />
    <glyph glyph-name="uniF254" unicode="AUDIO&#x20;OFF&#x20;ALT" 
d="M1878 512q0 -34 -27 -63q-31 -23 -59 -23t-61 23l-195 200l-197 -200q-31 -23 -59 -23t-63 23q-23 29 -23 63t23 59l200 197l-200 193q-23 29 -23 63t26 60t60 26t59 -27l197 -196l195 196q27 27 61 27t59 -27q27 -25 27 -59t-27 -63l-196 -193l196 -197q27 -25 27 -59z
M768 1366v-1196q0 -16 -10 -22t-25 6l-442 333q-41 25 -78 25h-170q-43 0 -43 43v426q0 43 43 43h170q39 0 78 27l442 331q14 10 25 6q10 -5 10 -22z" />
    <glyph glyph-name="uniF255" unicode="ACCESS" 
d="M641 1024q53 0 90 38t37 90t-38 90t-90 38t-90 -37t-38 -90t38 -91t91 -38zM2048 -85q0 -71 -49 -122q-55 -49 -121 -49h-256q-34 0 -60 26t-26 60v170h-170q-34 0 -60 26t-26 60v170h-170q-34 0 -60 26t-26 60v184l-14 15q-57 57 -156 57h-135q-184 0 -326 135
q-137 137 -137 333t137 333t333 137t333 -137q135 -141 135 -332v-129q0 -99 57 -156l748 -747q49 -49 49 -120z" />
    <glyph glyph-name="uniF256" unicode="READINGTIME" 
d="M1754 150q28 0 44 21q38 49 -8 93l-188 152v266q0 27 -18 46q-18 20 -47 20q-28 0 -46 -18t-18 -46v-299q-1 -37 24 -51l213 -170q16 -14 44 -14zM1536 897q212 1 362 -149t150 -363t-150 -363t-362 -149q-212 0 -362 150q-150 151 -150 363t150 362t362 149zM1280 1409
v-391q-4 -4 -10 -4q-190 -84 -303 -256t-113 -373q0 -74 16 -152q-152 -27 -229 -104q-76 75 -217 101t-424 26v1153q471 0 641 -170q170 170 639 170z" />
    <glyph glyph-name="uniF257" unicode="LOLCAT" 
d="M1022 512h-8q-35 -4 -35 -50t-37 -83t-90 -37t-91 37t-38 90q0 19 -12 31t-31 12q-41 0 -41 -43q0 -89 61 -151q60 -62 158 -62t164 86q66 -86 163 -86t160 62q62 62 62 151q0 19 -12 31q-13 12 -31 12t-30 -12t-13 -31q0 -53 -38 -90t-91 -37t-90 37t-37 90q0 18 -12 31
q-13 12 -31 12zM1554 682q80 0 137 56q56 56 56 136t-55 136q-54 56 -136 57q-82 0 -137 -56q-55 -57 -55 -137t55 -136t135 -56zM489 682q80 0 136 56q55 56 55 136t-55 136t-135 57q-80 0 -137 -56q-56 -57 -56 -137t56 -136t136 -56zM713 -213q-324 0 -502 193
q-213 224 -213 692q0 989 78 1071q47 55 127 55q113 0 342 -125q131 -68 252 -151q125 14 228 14t228 -14q117 80 252 153q227 123 342 123q82 0 125 -55q37 -43 50 -187q26 -289 26 -786q6 -63 6 -182q0 -391 -185 -596t-528 -205h-628z" />
    <glyph glyph-name="uniF258" unicode="PERMALINK" 
d="M897 1024v63q0 188 129 318q137 131 318 131t317 -131q131 -135 131 -317t-131 -318q-129 -129 -318 -129h-638q-81 0 -137 -57t-56 -136q0 -80 56 -136t136 -56t136 56q57 56 57 137v63h256v-63q0 -182 -131 -318q-137 -131 -317 -131t-318 131q-131 137 -131 317
t131 318q135 131 318 131h638q80 0 137 56q56 56 56 135q0 80 -56 136t-136 56t-135 -56q-56 -56 -56 -137v-63h-256z" />
    <glyph glyph-name="uniF259" unicode="STOCK&#x20;EQUAL" 
d="M256 639q0 53 38 91t91 38h1278q51 0 90 -37t39 -91t-38 -92t-91 -36h-1278q-53 -2 -91 36t-38 91z" />
    <glyph glyph-name="uniF25A" unicode="STOCK&#x20;DECREASE" 
d="M2048 598v-555q0 -45 -43 -45h-555q-33 0 -14 33l200 200l-356 355l-422 -420q-35 -37 -90 -37t-90 37l-641 639q-39 37 -39 90t38 91t92 38t91 -37l549 -549l422 420q35 39 90 39t90 -39l449 -446l198 200q12 8 21 9q10 0 10 -23z" />
    <glyph glyph-name="uniF25B" unicode="STOCK&#x20;INCREASE" 
d="M2050 981v-555q0 -23 -9 -23t-22 9l-198 200l-447 -446q-35 -37 -92 -37t-90 37l-422 420l-549 -549q-39 -39 -89 -39t-91 38t-41 91t39 92l641 639q35 39 91 39t91 -39l420 -420l356 357l-198 198q-23 31 14 31h555q41 0 41 -43z" />
    <glyph glyph-name="uniF260" unicode="CADDY" 
d="M1409 256q53 0 90 -38t37 -90t-37 -90t-90 -38t-91 38t-38 91t38 90t91 37zM897 256q53 0 90 -38t37 -90t-37 -90t-90 -38t-91 38t-38 91t38 90t91 37zM1739 1024q53 0 33 -49l-222 -559q-14 -33 -51 -33h-694q-39 0 -47 37l-180 604h-193q-57 0 -93 35t-36 93t36 93
t93 35h240q57 0 89 -27t54 -84l53 -145h918z" />
    <glyph glyph-name="uniF261" unicode="DIRECTIONS" 
d="M1024 385h256v-342q0 -43 -43 -43h-170q-43 0 -43 43v342zM1749 897q43 0 43 -43v-299q0 -43 -43 -43h-1108l-256 193l256 192h1108zM555 1024q-43 0 -43 43v299q0 43 43 43h469v84q0 43 43 43h170q43 0 43 -43v-84h383l258 -192l-258 -193h-1108z" />
    <glyph glyph-name="uniF262" unicode="HISTORY" 
d="M909 770v299q1 27 19 45t45 18t46 -18q19 -20 19 -47v-266l209 -172q25 -25 25 -51t-18 -46q-18 -18 -45 -18q-26 0 -42 14l-233 191q-25 14 -25 51zM78 768h180q0 316 225 542t541 226t542 -225t226 -543t-226 -542q-226 -226 -542 -226t-541 225l176 181
q156 -150 367 -150q210 0 360 151t150 361t-150 362q-150 150 -362 150t-362 -151t-150 -361h178q29 0 36 -17t-13 -38l-297 -297q-33 -31 -66 2l-295 295q-20 19 -13 37t36 18z" />
    <glyph glyph-name="uniF263" unicode="IDCARD" 
d="M1280 256v129h-256v-129h256zM1024 639h512v129h-512v-129zM1024 895h512v129h-512v-129zM256 981v-682q0 -43 43 -43h426q43 0 43 43v682q0 43 -43 43h-426q-43 0 -43 -43zM129 1280h1534q129 0 129 -129v-1022q0 -129 -129 -129h-1534q-129 0 -129 129v1022
q0 129 129 129z" />
    <glyph glyph-name="uniF264" unicode="INBOX" 
d="M1446 897h-846q-23 0 -35 -23l-157 -325q-16 -37 22 -37h105q104 0 151 -94l35 -68q47 -94 151 -94h304q104 0 151 94l35 68q47 94 151 94h107q38 0 22 37l-159 325q-12 23 -37 23zM616 1024h816q104 0 151 -94l172 -342q37 -76 37 -160v-555q0 -129 -129 -129h-1278
q-129 0 -129 129v555q0 84 37 160l172 342q47 94 151 94z" />
    <glyph glyph-name="uniF265" unicode="MENU" 
d="M385 256h1280q51 0 89 -38t38 -90t-37 -90t-90 -38h-1280q-53 0 -91 38t-38 91t38 90t91 37zM385 768h1280q51 0 89 -38t38 -90t-37 -90t-90 -38h-1280q-53 0 -91 38t-38 91t38 90t91 37zM1665 1024h-1280q-53 0 -91 38t-38 91t38 90t91 37h1280q51 0 89 -38t38 -90
t-37 -90t-90 -38z" />
    <glyph glyph-name="uniF266" unicode="TIME" 
d="M1153 852v489q0 129 -129 129t-129 -129v-596q0 -30 23 -53l309 -309q92 -92 182 0t0 182l-233 234q-23 23 -23 53zM1028 1792q266 0 502 -137t377 -375t141 -520t-146 -520t-380 -367t-513 -129t-517 148t-365 380t-127 510q0 276 146 514t381 367t501 129z" />
    <glyph glyph-name="uniF267" unicode="COMPAS" 
d="M1024 627q57 0 99 41t42 100t-42 100t-99 41t-99 -41t-42 -100t42 -100t99 -41zM1419 926l574 -144q24 -5 14 -20q-4 -6 -14 -8l-574 -144l107 -321q4 -15 -2 -21t-21 -2l-321 107l-144 -574q-5 -24 -20 -14q-6 4 -8 14l-144 574l-321 -107q-14 -4 -21 2q-6 6 -2 21
l107 321l-574 144q-24 5 -14 20q4 6 14 8l574 144l-107 321q-4 15 2 21t21 2l321 -107l144 574q5 24 20 14q6 -4 8 -14l144 -574l321 107q15 4 21 -2t2 -21z" />
    <glyph glyph-name="uniF268" unicode="LOL" horiz-adv-x="1705" 
d="M1384 270q66 0 91 -6q6 -4 15 -24t-8 -40q-17 -22 -48 -28q-14 14 -50 26q-37 13 -57 7q-76 -23 -90 -25l-82 -30q-127 -62 -164 -62l-200 -39l-62 -6q-42 -11 -78 -30q-37 -19 -51 -25l-141 -74q-18 -12 -53 -62q-34 -49 -48 -62t-30 -50t-32 -62t-40 -24q-4 -2 -9 8
t-15 34t-19 32q-51 51 -51 90q10 53 55 88q92 72 197 125l139 65q72 29 127 41l596 127q42 6 108 6zM1253 856v-11q1 -9 9 -9t25 16q46 43 68 125q21 82 21 138l-2 97q0 44 -30 88q-4 6 -7 5l-26 -21q-21 -17 -25 -49q-4 -31 -8 -117t-11 -137t-9 -65q-6 -54 -5 -60z
M1114 725v55q0 156 92 482q13 62 29 86l18 27l16 21q3 3 8 9q16 19 50 25q68 -14 82 -70q20 -66 33 -193q8 -307 -131 -426q-45 -39 -60 -96l-14 -63q-8 -49 -1 -78t40 -45q34 -16 64 -5t44 25t40 50q35 49 83 40q10 -4 -8 -41t-55 -81q-37 -43 -75 -65q-37 -22 -101 -22
t-74 23q-6 6 -43 74q-27 66 -37 104q-55 25 -78 -2q-10 -31 -10 -47q0 -80 -78 -168q-74 -90 -139 -80q-38 0 -56 37q-1 2 -8 14l-4 15q-4 14 -22 14t-41 -24t-41 -33l-31 -37q-55 -49 -107 -75t-85 -52l-43 -33q-31 -31 -74 -42t-49 -11q-51 0 -65 22q-13 23 -13 63t28 157
t35 186l7 295q0 172 8 274q8 72 82 92q99 26 109 3t-7 -99q-18 -76 -18 -131t-23 -139l-26 -193l-29 -182q-4 -33 -10 -88q-12 -106 75 -74l64 29l67 39q68 37 111 94q55 57 55 117v59q0 195 56 311q55 143 129 158q23 0 55 -15t39 -36q13 -32 -38 -71t-83 -183l-33 -147
l-10 -86v-5q0 -86 33 -104q27 -20 53 -4q20 20 37 72q2 4 25 55q35 68 -15 117q-57 49 -57 75v27q0 61 65 109q16 10 32 10t15 4h27q45 -6 45 -51v-47q0 -98 8 -99q1 -3 17 9t16 65z" />
    <glyph glyph-name="u1F3AB" unicode="TICKET" 
d="M129 1280h1790q53 0 91 -38t38 -91v-383q-53 0 -90 -38t-37 -91t37 -90t90 -37v-385q0 -53 -38 -90t-91 -37h-1790q-53 0 -91 37t-38 90v385q53 0 90 37t37 90t-37 91t-90 38v383q0 53 38 91t91 38z" />
    <glyph glyph-name="u1F4F7" unicode="CAMERA" 
d="M1024 725q88 0 150 -62q62 -61 63 -151q0 -90 -62 -152q-61 -62 -151 -61q-90 0 -152 61q-61 60 -61 150t62 153q63 62 151 62zM1023 127q159 0 273 113q114 114 113 272q0 158 -114 270q-115 112 -273 113q-158 0 -270 -113q-112 -114 -111 -272q-1 -158 111 -270
t271 -113zM1665 1108v86q0 16 -13 30t-30 13h-86q-18 0 -30 -13t-13 -30v-86q0 -16 12 -28t31 -13h86q16 0 30 12q13 13 13 29zM768 1280v-213q0 -43 43 -43h426q43 0 43 43v213q0 18 -12 30t-31 13h-426q-18 0 -31 -12q-12 -13 -12 -31zM2048 938v-682q0 -39 -25 -59
l-61 -62v-51q0 -36 -25 -60t-59 -24h-1708q-36 0 -60 25t-24 59v51l-59 62q-27 18 -27 59v682q0 35 27 59l59 60v223q0 36 25 60t59 24h471q0 34 25 60t59 26h598q31 0 59 -24t27 -62h469q36 0 60 -25t24 -59v-223l61 -60q25 -29 25 -59z" />
    <glyph glyph-name="u1F512" unicode="LOCK" 
d="M598 0h170q34 0 60 27t26 51t-6 39l-82 202q88 53 88 150q0 72 -50 122t-121 50t-121 -51t-50 -121q0 -98 88 -150l-82 -202q-6 -14 -6 -41q0 -28 26 -52t60 -24zM938 938v342q0 106 -76 181t-181 75t-180 -75t-75 -181v-342h512zM1194 1280v-342q72 0 122 -50t50 -120
v-854q0 -70 -51 -120t-121 -50h-1024q-70 0 -120 50t-50 120v854q0 70 50 120t120 50v342q0 212 153 362t361 150t358 -150q152 -150 152 -362z" />
    <glyph glyph-name="u1F516" unicode="BOOKMARK" 
d="M385 1792h1280q51 0 89 -38t38 -89v-1792q0 -51 -38 -90t-91 -39t-90 37l-549 553l-549 -553q-37 -37 -89 -37t-91 38t-39 91v1792q0 53 38 90t91 37z" />
    <glyph glyph-name=".notdef" horiz-adv-x="1421" 
d="M256 256h954l-954 965v-965zM1280 1280h-922l922 -932v932zM1536 1536v-1536h-1536v1536h1536z" />
    <glyph glyph-name=".null" horiz-adv-x="0" 
 />
    <glyph glyph-name="nonmarkingreturn" horiz-adv-x="681" 
 />
    <glyph glyph-name="CR" unicode="&#xd;" 
d="M1280 256v1024h-1024v-1024h1024zM1536 1536v-1536h-1536v1536h1536z" />
    <glyph glyph-name="space" unicode=" " horiz-adv-x="512" 
 />
    <glyph glyph-name="quotesingle" unicode="'" horiz-adv-x="628" 
d="M301 1423h211l-295 -295h-108z" />
    <glyph glyph-name="zero" unicode="0" horiz-adv-x="1138" 
d="M806 1096q-61 170 -242 170q-182 0 -247 -169q-53 -142 -53 -399q0 -419 146 -523q61 -44 151 -44q182 0 243 172q54 151 54 399t-52 394zM1038 700q0 -723 -477 -723q-275 0 -383 218q-96 196 -94 505q0 162 20 283q72 434 445 434q233 0 349 -138q140 -167 140 -579z
" />
    <glyph glyph-name="one" unicode="1" horiz-adv-x="1138" 
d="M702 1409v-1409h-174v1210l-342 -245v176l369 268h147z" />
    <glyph glyph-name="two" unicode="2" horiz-adv-x="1138" 
d="M995 0h-934q11 211 109 343t292 262t247 181q109 104 109 222t-79 190q-77 72 -199 72t-193 -86t-75 -223h-174v14q0 193 124 319t325 125t325 -109t125 -296q0 -102 -48 -190t-121 -149q-74 -60 -162 -125t-167 -118t-143 -127t-84 -153h723v-152z" />
    <glyph glyph-name="three" unicode="3" horiz-adv-x="1138" 
d="M1030 397q0 -201 -131 -311t-349 -109q-218 0 -349 114t-131 317h176q4 -133 85 -207t217 -74t218 71q82 70 82 194t-87 192t-235 67l-92 -2v150h76q131 0 211 61t80 173t-70 173q-71 62 -193 62t-194 -80t-74 -207h-174q8 209 127 323t318 114t319 -96q120 -95 121 -280
q0 -244 -215 -305v-4q124 -14 194 -107t70 -229z" />
    <glyph glyph-name="four" unicode="4" horiz-adv-x="1138" 
d="M692 1163h-2l-467 -688h469v688zM856 0h-164v324h-641v151l643 934h162v-934h195v-151h-195v-324z" />
    <glyph glyph-name="five" unicode="5" horiz-adv-x="1138" 
d="M588 915q190 -1 314 -125t124 -335t-129 -344t-342 -133t-340 100q-127 102 -139 278h176q16 -109 94 -169t208 -60t209 86q79 85 79 233t-83 233t-229 85t-254 -115q-53 2 -161 2l96 746h741v-152h-596l-59 -418q0 -2 2 -2q98 90 289 90z" />
    <glyph glyph-name="six" unicode="6" horiz-adv-x="1138" 
d="M293 450q0 -136 79 -230t209 -95q129 0 203 87q74 86 74 232t-68 233q-69 87 -202 87t-214 -89t-81 -225zM586 1270q-107 0 -184 -79q-76 -79 -106 -196t-32 -270q0 -2 2 -2q106 184 346 184q199 0 314 -127q114 -128 114 -328t-118 -337t-344 -138q-487 0 -488 685
q0 346 125 550t385 205q170 0 278 -91t115 -247h-162q-14 91 -76 141t-169 50z" />
    <glyph glyph-name="seven" unicode="7" horiz-adv-x="1138" 
d="M1024 1397v-152q-496 -625 -510 -1245h-188q18 610 524 1239h-748v158h922z" />
    <glyph glyph-name="eight" unicode="8" horiz-adv-x="1138" 
d="M268 395q0 -129 79 -203t217 -73q138 -1 213 73t75 204t-80 202t-212 72t-212 -73t-80 -202zM807 1047q0 229 -246 229q-119 0 -185 -58t-67 -172q0 -114 69 -174q70 -60 186 -61q116 1 180 61t63 175zM1036 399q0 -197 -128 -309t-344 -113q-216 0 -347 109t-131 311
q0 131 72 225t192 123q-102 35 -162 119q-59 84 -59 195q0 164 121 261q122 97 318 97t309 -101t112 -259q0 -109 -59 -193t-160 -116q129 -33 198 -123q68 -91 68 -226z" />
    <glyph glyph-name="nine" unicode="9" horiz-adv-x="1138" 
d="M258 946q0 -144 74 -229q74 -86 200 -86t207 88q82 88 82 223t-78 230q-79 96 -211 96t-203 -89t-71 -233zM526 123q311 0 322 551q-2 0 -2 2q-49 -90 -137 -140t-197 -51q-206 0 -320 128t-114 337t125 337t334 128q487 0 487 -680q0 -369 -125 -563t-373 -195
q-172 0 -284 90t-123 250h164q11 -92 79 -143t164 -51z" />
    <glyph glyph-name="A" unicode="A" horiz-adv-x="1345" 
d="M913 571l-251 684l-252 -684h503zM971 420h-619l-162 -420h-196q186 471 563 1413h215l559 -1413h-201z" />
    <glyph glyph-name="B" unicode="B" horiz-adv-x="1384" 
d="M352 156h422q147 0 224 66t77 190q0 244 -330 243h-393v-499zM352 809h350q156 0 229 56t73 176t-77 167t-225 47h-350v-446zM164 1413h512q254 0 386 -80t132 -264q0 -121 -61 -204t-177 -117q142 -31 226 -117t84 -230q0 -195 -136 -298t-407 -103h-559v1413z" />
    <glyph glyph-name="C" unicode="C" horiz-adv-x="1478" 
d="M774 1282q-233 0 -360 -159t-127 -415t129 -416q129 -161 364 -161q162 0 268 99q105 99 142 266h192q-28 -240 -200 -381t-416 -142q-317 0 -494 199q-176 200 -176 530t179 534t499 204q230 0 396 -116t184 -320h-187q-3 138 -117 208t-276 70z" />
    <glyph glyph-name="D" unicode="D" horiz-adv-x="1460" 
d="M352 156h314q184 0 330 115q77 60 122 175t45 271q0 539 -514 538h-297v-1099zM164 1413h477q342 0 528 -180q187 -180 187 -520q0 -341 -177 -527t-509 -186h-506v1413z" />
    <glyph glyph-name="E" unicode="E" horiz-adv-x="1308" 
d="M164 1413h1024v-158h-836v-450h672v-158h-672v-489h858v-158h-1046v1413z" />
    <glyph glyph-name="F" unicode="F" horiz-adv-x="1212" 
d="M352 768h647v-158h-647v-610h-188v1413h964v-158h-776v-487z" />
    <glyph glyph-name="G" unicode="G" horiz-adv-x="1572" 
d="M788 -27q-317 0 -505 203q-189 202 -189 528t180 531t510 205q240 0 411 -112t218 -316h-209q-86 270 -424 270q-242 0 -368 -162t-125 -417q0 -255 133 -415t361 -159q228 0 352 116q123 116 108 320h-438v160h610v-725h-125l-49 168q-195 -195 -451 -195z" />
    <glyph glyph-name="H" unicode="H" horiz-adv-x="1478" 
d="M1098 651h-746v-651h-188v1413h188v-602h746v602h190v-1413h-190v651z" />
    <glyph glyph-name="I" unicode="I" horiz-adv-x="548" 
d="M178 1413h191v-1413h-191v1413z" />
    <glyph glyph-name="J" unicode="J" horiz-adv-x="1042" 
d="M872 1411v-1026q0 -184 -104 -298t-309 -114t-311 117q-105 117 -109 332h186q1 -133 59 -213t177 -80q223 0 223 268v1014h188z" />
    <glyph glyph-name="K" unicode="K" horiz-adv-x="1366" 
d="M352 0h-188v1413h188v-708l701 708h233q-596 -590 -598 -592l649 -821h-235q-438 563 -539 694l-211 -198v-496z" />
    <glyph glyph-name="L" unicode="L" horiz-adv-x="1138" 
d="M164 1413h188v-1255h731v-158h-919v1413z" />
    <glyph glyph-name="M" unicode="M" horiz-adv-x="1744" 
d="M338 0h-172v1413h254l440 -1196l445 1196h251v-1413h-174v1178l-446 -1178h-148l-450 1178v-1178z" />
    <glyph glyph-name="N" unicode="N" horiz-adv-x="1478" 
d="M336 0h-174v1413h211l753 -1180h2v1180h172v-1413h-221l-743 1161v-1161z" />
    <glyph glyph-name="O" unicode="O" horiz-adv-x="1574" 
d="M1274 707q0 251 -128 413t-370 162t-370 -162t-127 -412q0 -250 130 -414q129 -165 369 -165t368 163t128 415zM775 1440q325 0 507 -204t182 -526q0 -323 -182 -530t-505 -207t-507 204q-184 203 -184 527t182 530t507 206z" />
    <glyph glyph-name="P" unicode="P" horiz-adv-x="1345" 
d="M352 719h377q317 0 318 270q0 266 -320 266h-375v-536zM164 1413h608q219 -1 342 -111t123 -311t-123 -315t-338 -113h-424v-563h-188v1413z" />
    <glyph glyph-name="Q" unicode="Q" horiz-adv-x="1574" 
d="M1274 707q0 249 -129 411t-369 162t-368 -161t-129 -413q0 -252 130 -415q130 -164 367 -164q104 0 197 35q-99 80 -162 129l100 117q47 -37 197 -160q166 166 166 459zM774 -27q-324 0 -506 209t-182 530q0 322 184 524t508 202t504 -205q182 -205 182 -526
q0 -379 -217 -572l178 -139q-6 -6 -100 -119q-68 59 -209 168q-143 -72 -342 -72z" />
    <glyph glyph-name="R" unicode="R" horiz-adv-x="1439" 
d="M352 750h428q322 0 322 260q0 114 -73 180t-216 65h-461v-505zM352 596v-596h-188v1413h665q215 0 337 -113q122 -114 122 -282t-66 -266t-221 -131q-1 0 53 -111q171 -347 292 -510h-218q-49 68 -131 216t-137 263l-57 117h-451z" />
    <glyph glyph-name="S" unicode="S" horiz-adv-x="1345" 
d="M657 1288q-151 0 -241 -57t-90 -163t75 -156q75 -48 299 -98t316 -91q223 -106 225 -334q0 -203 -159 -309q-158 -106 -412 -106t-418 112q-164 113 -174 334h188q16 -147 127 -220t284 -73t275 61t103 193q0 87 -72 153q-27 24 -91 48t-102 32q-36 8 -98 22t-80 19
q-254 57 -364 139t-109 263q1 180 145 281t380 102q481 -1 532 -404h-182q-47 252 -357 252z" />
    <glyph glyph-name="T" unicode="T" horiz-adv-x="1212" 
d="M692 0h-188v1255h-479v158h1146v-158h-479v-1255z" />
    <glyph glyph-name="U" unicode="U" horiz-adv-x="1478" 
d="M1307 1411v-891q0 -262 -153 -404t-423 -142t-424 136q-154 138 -153 402v899h190v-891q0 -190 100 -290t286 -101q186 0 285 102t99 295v885h193z" />
    <glyph glyph-name="V" unicode="V" horiz-adv-x="1308" 
d="M541 0l-539 1413h205l440 -1229l440 1229h201l-540 -1413h-207z" />
    <glyph glyph-name="W" unicode="W" horiz-adv-x="1914" 
d="M1260 0l-320 1194l-324 -1194h-210l-390 1413h197l307 -1210l326 1210h194l326 -1210l309 1210h195l-397 -1413h-213z" />
    <glyph glyph-name="X" unicode="X" horiz-adv-x="1308" 
d="M645 600l-412 -600h-213l517 729l-482 684h219l373 -553l375 553h211l-475 -680l510 -733h-221z" />
    <glyph glyph-name="Y" unicode="Y" horiz-adv-x="1345" 
d="M758 0h-189v582l-544 831h217l426 -674l422 674h213l-545 -831v-582z" />
    <glyph glyph-name="Z" unicode="Z" horiz-adv-x="1251" 
d="M55 0v152l871 1103h-801v158h1020v-149l-869 -1106h904v-158h-1125z" />
    <glyph glyph-name="underscore" unicode="_" horiz-adv-x="0" 
 />
    <glyph glyph-name="a" unicode="a" horiz-adv-x="1118" 
d="M778 442v90q-29 -29 -119 -43t-175 -22q-86 -8 -154 -52t-68 -127t51 -126t141 -43t160 31q115 52 150 185q14 52 14 107zM962 -16q-64 0 -112 53q-49 53 -53 145q-123 -205 -383 -205q-156 0 -245 78t-89 227q0 148 82 208q105 76 341 101q151 16 201 36q50 21 63 47
t13 51q0 207 -229 207q-117 0 -178 -43t-70 -144h-186q14 164 132 246t310 82q397 0 397 -321v-496q0 -125 78 -139q18 -2 53 10v-123q-61 -20 -125 -20z" />
    <glyph glyph-name="b" unicode="b" horiz-adv-x="1175" 
d="M899 530q0 190 -72 296q-73 106 -223 106t-224 -110t-73 -302q0 -401 307 -401q285 -1 285 411zM137 0v1450h174q0 -508 -2 -553h4q86 176 332 176q215 0 326 -144q111 -145 111 -401t-112 -403q-110 -147 -334 -147t-323 174h-4l-4 -152h-168z" />
    <glyph glyph-name="c" unicode="c" horiz-adv-x="1060" 
d="M559 930q-297 0 -297 -408q0 -186 72 -292t217 -107q225 0 260 223h176q-23 -174 -139 -271t-295 -98q-227 1 -350 145t-123 400t122 404t353 147q171 0 287 -87t139 -249h-180q-35 193 -242 193z" />
    <glyph glyph-name="d" unicode="d" horiz-adv-x="1175" 
d="M262 528q0 -406 289 -407q153 -1 227 109t74 302q0 401 -305 402q-285 0 -285 -406zM856 0v156q-109 -178 -333 -178t-334 146t-109 402q0 256 109 402q111 145 335 145t322 -172h4v549h174q0 -1389 2 -1450h-170z" />
    <glyph glyph-name="e" unicode="e" horiz-adv-x="1118" 
d="M556 934q-130 0 -206 -85t-86 -224h586q-10 145 -87 227t-207 82zM264 481q0 -166 78 -264t233 -98q109 0 180 48t93 134h180q-41 -151 -163 -237t-294 -87q-239 1 -365 147t-126 401t132 401t362 147q230 0 344 -164t116 -428h-770z" />
    <glyph glyph-name="f" unicode="f" horiz-adv-x="587" 
d="M362 0h-174v913h-159v140h159v139q0 268 273 268q59 0 121 -14v-143q-46 12 -102 12t-87 -29t-31 -106v-127h205v-140h-205v-913z" />
    <glyph glyph-name="g" unicode="g" horiz-adv-x="1169" 
d="M274 528q0 -195 64 -299t208 -104q146 1 226 115t80 289t-78 286t-215 111q-285 0 -285 -398zM1020 866v-813q0 -481 -465 -481q-174 0 -289 69t-133 209h176q18 -141 254 -141q145 0 219 92t74 260v119h-2q-47 -96 -138 -146t-202 -50q-209 0 -315 140
q-107 140 -107 391t108 401t330 151q102 0 192 -49t134 -137v166h166q-2 -42 -2 -181z" />
    <glyph glyph-name="h" unicode="h" horiz-adv-x="1138" 
d="M305 887h4q94 188 336 188q184 0 266 -93t82 -286v-696h-174v690q0 123 -52 182q-52 60 -178 60t-203 -89t-77 -235v-608h-174v1450h170v-563z" />
    <glyph glyph-name="i" unicode="i" horiz-adv-x="454" 
d="M139 1053h174v-1053h-174v1053zM139 1450h174v-188h-174v188z" />
    <glyph glyph-name="j" unicode="j" horiz-adv-x="454" 
d="M311 1047v-1184q0 -279 -243 -279q-51 0 -107 10v142q45 -4 76 -4q98 0 98 157v1158h176zM135 1444h176v-189h-176v189z" />
    <glyph glyph-name="k" unicode="k" horiz-adv-x="1042" 
d="M313 0h-174v1450h174v-885l471 488h220l-424 -420l450 -633h-213l-358 514l-146 -127v-387z" />
    <glyph glyph-name="l" unicode="l" horiz-adv-x="454" 
d="M139 1450h174v-1450h-174v1450z" />
    <glyph glyph-name="m" unicode="m" horiz-adv-x="1726" 
d="M766 0v680q0 133 -43 192q-43 60 -160 60t-185 -91t-69 -210v-631h-176v1053h166q2 -82 2 -166h4q55 100 130 144t183 44q244 0 300 -188q109 188 311 188q340 0 340 -338v-737h-172v680q0 131 -42 191q-42 61 -160 61q-119 0 -187 -80t-68 -221v-631h-174z" />
    <glyph glyph-name="n" unicode="n" horiz-adv-x="1138" 
d="M819 0v690q-4 127 -54 184q-50 58 -176 58t-203 -91t-77 -239v-602h-176v1053h168v-172h4q106 195 330 194q186 0 272 -94t86 -285v-696h-174z" />
    <glyph glyph-name="o" unicode="o" horiz-adv-x="1157" 
d="M877 526q0 201 -79 304q-79 104 -227 104q-149 0 -229 -104t-80 -302q0 -199 81 -304t227 -105t227 103q80 103 80 304zM80 528q0 256 126 400t366 145q240 -1 365 -143q124 -142 124 -402t-127 -405t-365 -145q-237 0 -363 146q-126 148 -126 404z" />
    <glyph glyph-name="p" unicode="p" horiz-adv-x="1175" 
d="M897 518q0 406 -287 408q-303 0 -303 -406t307 -407q283 -1 283 405zM305 1047v-156q90 178 340 178q215 0 326 -144q111 -143 111 -401t-112 -405q-110 -147 -336 -147t-321 175h-4q2 -20 2 -139v-424h-176v1463h170z" />
    <glyph glyph-name="q" unicode="q" horiz-adv-x="1175" 
d="M262 526q0 -414 285 -413q305 1 305 407t-301 406q-145 0 -217 -105t-72 -295zM526 -29q-224 -1 -336 147q-110 148 -110 405t110 402q111 144 324 144q252 0 340 -178v156h172v-1463h-178v424q0 119 2 139h-4q-96 -176 -320 -176z" />
    <glyph glyph-name="r" unicode="r" horiz-adv-x="681" 
d="M307 469v-469h-174v1053h166v-219h2q49 131 122 186t185 55q14 0 47 -4v-172l-45 2q-164 0 -234 -104t-69 -328z" />
    <glyph glyph-name="s" unicode="s" horiz-adv-x="1024" 
d="M497 932q-228 0 -229 -141q0 -51 41 -85t99 -53t208 -54q150 -34 238 -99q88 -66 88 -214t-122 -229q-122 -80 -316 -80t-308 82q-116 82 -137 244h164q25 -182 287 -182q118 0 192 40t74 124q0 104 -152 147q-64 18 -132 36q-217 56 -258 79q-86 50 -103 83
q-39 70 -39 146q0 145 111 221t286 76q387 0 420 -293h-166q-18 152 -246 152z" />
    <glyph glyph-name="t" unicode="t" horiz-adv-x="606" 
d="M384 -8q-102 0 -156 52t-54 181v688h-149v140h149v276h174v-276h203v-140h-203v-659q0 -70 26 -94t82 -23q56 0 105 8v-141q-75 -12 -177 -12z" />
    <glyph glyph-name="u" unicode="u" horiz-adv-x="1138" 
d="M305 1053v-691q4 -127 54 -184t175 -57t203 90t78 240v602h174q0 -1008 2 -1053h-168v172h-4q-106 -195 -340 -195q-186 1 -267 95t-81 282v699h174z" />
    <glyph glyph-name="v" unicode="v" horiz-adv-x="1024" 
d="M991 1053l-391 -1053h-197l-387 1053h191l299 -897q10 31 301 897h184z" />
    <glyph glyph-name="w" unicode="w" horiz-adv-x="1515" 
d="M1159 0h-194l-217 874h-3l-219 -874h-196l-314 1053h181l231 -887h2l221 887h193l223 -887l236 887h176z" />
    <glyph glyph-name="x" unicode="x" horiz-adv-x="1042" 
d="M510 434l-291 -434h-199l386 547l-363 506h209l258 -389l262 389h201l-361 -498l394 -555h-209z" />
    <glyph glyph-name="y" unicode="y" horiz-adv-x="1024" 
d="M997 1047l-407 -1063q-49 -121 -84 -190t-79 -123t-95 -74q-51 -21 -123 -21t-117 14v146q61 -14 90 -15q90 1 134 55t112 222l-418 1049h191l313 -863q127 346 299 863h184z" />
    <glyph glyph-name="z" unicode="z" horiz-adv-x="1003" 
d="M98 909v144h793v-125l-617 -785h641v-143h-852v133l613 776h-578z" />
    <glyph glyph-name="dieresis" unicode="&#xa8;" horiz-adv-x="567" 
d="M377 1411h172v-197h-172v197zM-6 1411h170v-197h-170v197z" />
    <glyph glyph-name="acute" unicode="&#xb4;" horiz-adv-x="567" 
d="M281 1497h211l-295 -295h-109z" />
    <glyph glyph-name="Agrave" unicode="&#xc0;" horiz-adv-x="1345" 
d="M913 571l-251 684l-252 -684h503zM971 420h-619l-162 -420h-196q186 471 563 1413h215l559 -1413h-201zM365 1831h210l193 -295h-109z" />
    <glyph glyph-name="Adieresis" unicode="&#xc4;" horiz-adv-x="1536" 
d="M913 571l-251 684l-252 -684h503zM971 420h-619l-162 -420h-196q186 471 563 1413h215l559 -1413h-201zM768 1784h172v-197h-172v197zM385 1784h170v-197h-170v197z" />
    <glyph glyph-name="Aring" unicode="&#xc5;" horiz-adv-x="1345" 
 />
    <glyph glyph-name="Ccedilla" unicode="&#xc7;" horiz-adv-x="1478" 
 />
    <glyph glyph-name="Egrave" unicode="&#xc8;" horiz-adv-x="1308" 
d="M164 1413h1024v-158h-836v-450h672v-158h-672v-489h858v-158h-1046v1413zM449 1831h210l193 -295h-109z" />
    <glyph glyph-name="Eacute" unicode="&#xc9;" horiz-adv-x="1308" 
d="M164 1413h1024v-158h-836v-450h672v-158h-672v-489h858v-158h-1046v1413zM711 1860h211l-295 -295h-109z" />
    <glyph glyph-name="Ecircumflex" unicode="&#xca;" horiz-adv-x="1308" 
d="M164 1413h1024v-158h-836v-450h672v-158h-672v-489h858v-158h-1046v1413zM831 1534l-180 178l-184 -178h-127l217 287h195l217 -287h-138z" />
    <glyph glyph-name="Idieresis" unicode="&#xcf;" horiz-adv-x="548" 
d="M178 1413h191v-1413h-191v1413zM379 1733h172v-197h-172v197zM-4 1733h170v-197h-170v197z" />
    <glyph glyph-name="Ntilde" unicode="&#xd1;" horiz-adv-x="1478" 
 />
    <glyph glyph-name="Odieresis" unicode="&#xd6;" horiz-adv-x="1574" 
d="M1274 707q0 251 -128 413t-370 162t-370 -162t-127 -412q0 -250 130 -414q129 -165 369 -165t368 163t128 415zM775 1440q325 0 507 -204t182 -526q0 -323 -182 -530t-505 -207t-507 204q-184 203 -184 527t182 530t507 206zM905 1722h172v-196h-172v196zM522 1722h170
v-196h-170v196z" />
    <glyph glyph-name="Udieresis" unicode="&#xdc;" horiz-adv-x="1478" 
d="M1307 1411v-891q0 -262 -153 -404t-423 -142t-424 136q-154 138 -153 402v899h190v-891q0 -190 100 -290t286 -101q186 0 285 102t99 295v885h193zM844 1784h172v-197h-172v197zM461 1784h170v-197h-170v197z" />
    <glyph glyph-name="germandbls" unicode="&#xdf;" horiz-adv-x="1193" 
d="M135 0v1038q0 203 113 317q113 113 300 113t303 -87t116 -236q0 -190 -90 -266l-113 -88q115 -45 217 -175t102 -251q0 -176 -112 -281q-113 -104 -305 -104q-84 0 -130 9t-44 13v152q0 -6 57 -15q57 -8 80 -8q274 0 274 211q1 150 -113 260t-247 109v104q113 25 187 110
t73 185q0 100 -67 156q-68 56 -182 57q-114 0 -180 -72t-65 -229v-1022h-174z" />
    <glyph glyph-name="agrave" unicode="&#xe0;" horiz-adv-x="1118" 
d="M778 442v90q-29 -29 -119 -43t-175 -22q-86 -8 -154 -52t-68 -127t51 -126t141 -43t160 31q115 52 150 185q14 52 14 107zM962 -16q-64 0 -112 53q-49 53 -53 145q-123 -205 -383 -205q-156 0 -245 78t-89 227q0 148 82 208q105 76 341 101q151 16 201 36q50 21 63 47
t13 51q0 207 -229 207q-117 0 -178 -43t-70 -144h-186q14 164 132 246t310 82q397 0 397 -321v-496q0 -125 78 -139q18 -2 53 10v-123q-61 -20 -125 -20zM274 1497h211l193 -295h-109z" />
    <glyph glyph-name="aacute" unicode="&#xe1;" horiz-adv-x="1118" 
d="M778 442v90q-29 -29 -119 -43t-175 -22q-86 -8 -154 -52t-68 -127t51 -126t141 -43t160 31q115 52 150 185q14 52 14 107zM962 -16q-64 0 -112 53q-49 53 -53 145q-123 -205 -383 -205q-156 0 -245 78t-89 227q0 148 82 208q105 76 341 101q151 16 201 36q50 21 63 47
t13 51q0 207 -229 207q-117 0 -178 -43t-70 -144h-186q14 164 132 246t310 82q397 0 397 -321v-496q0 -125 78 -139q18 -2 53 10v-123q-61 -20 -125 -20zM621 1497h210l-294 -295h-109z" />
    <glyph glyph-name="acircumflex" unicode="&#xe2;" horiz-adv-x="1118" 
d="M778 442v90q-29 -29 -119 -43t-175 -22q-86 -8 -154 -52t-68 -127t51 -126t141 -43t160 31q115 52 150 185q14 52 14 107zM962 -16q-64 0 -112 53q-49 53 -53 145q-123 -205 -383 -205q-156 0 -245 78t-89 227q0 148 82 208q105 76 341 101q151 16 201 36q50 21 63 47
t13 51q0 207 -229 207q-117 0 -178 -43t-70 -144h-186q14 164 132 246t310 82q397 0 397 -321v-496q0 -125 78 -139q18 -2 53 10v-123q-61 -20 -125 -20zM729 1202l-180 178l-184 -178h-127l217 287h194l217 -287h-137z" />
    <glyph glyph-name="atilde" unicode="&#xe3;" horiz-adv-x="1118" 
d="M778 442v90q-29 -29 -119 -43t-175 -22q-86 -8 -154 -52t-68 -127t51 -126t141 -43t160 31q115 52 150 185q14 52 14 107zM962 -16q-64 0 -112 53q-49 53 -53 145q-123 -205 -383 -205q-156 0 -245 78t-89 227q0 148 82 208q105 76 341 101q151 16 201 36q50 21 63 47
t13 51q0 207 -229 207q-117 0 -178 -43t-70 -144h-186q14 164 132 246t310 82q397 0 397 -321v-496q0 -125 78 -139q18 -2 53 10v-123q-61 -20 -125 -20z" />
    <glyph glyph-name="adieresis" unicode="&#xe4;" horiz-adv-x="1118" 
d="M778 442v90q-29 -29 -119 -43t-175 -22q-86 -8 -154 -52t-68 -127t51 -126t141 -43t160 31q115 52 150 185q14 52 14 107zM962 -16q-64 0 -112 53q-49 53 -53 145q-123 -205 -383 -205q-156 0 -245 78t-89 227q0 148 82 208q105 76 341 101q151 16 201 36q50 21 63 47
t13 51q0 207 -229 207q-117 0 -178 -43t-70 -144h-186q14 164 132 246t310 82q397 0 397 -321v-496q0 -125 78 -139q18 -2 53 10v-123q-61 -20 -125 -20zM655 1415h172v-196h-172v196zM272 1415h170v-196h-170v196z" />
    <glyph glyph-name="aring" unicode="&#xe5;" horiz-adv-x="1118" 
 />
    <glyph glyph-name="ccedilla" unicode="&#xe7;" horiz-adv-x="1060" 
 />
    <glyph glyph-name="egrave" unicode="&#xe8;" horiz-adv-x="1118" 
d="M556 934q-130 0 -206 -85t-86 -224h586q-10 145 -87 227t-207 82zM264 481q0 -166 78 -264t233 -98q109 0 180 48t93 134h180q-41 -151 -163 -237t-294 -87q-239 1 -365 147t-126 401t132 401t362 147q230 0 344 -164t116 -428h-770zM264 1497h211l193 -295h-109z" />
    <glyph glyph-name="eacute" unicode="&#xe9;" horiz-adv-x="1118" 
d="M556 934q-130 0 -206 -85t-86 -224h586q-10 145 -87 227t-207 82zM264 481q0 -166 78 -264t233 -98q109 0 180 48t93 134h180q-41 -151 -163 -237t-294 -87q-239 1 -365 147t-126 401t132 401t362 147q230 0 344 -164t116 -428h-770zM625 1497h211l-295 -295h-109z" />
    <glyph glyph-name="ecircumflex" unicode="&#xea;" horiz-adv-x="1118" 
d="M556 934q-130 0 -206 -85t-86 -224h586q-10 145 -87 227t-207 82zM264 481q0 -166 78 -264t233 -98q109 0 180 48t93 134h180q-41 -151 -163 -237t-294 -87q-239 1 -365 147t-126 401t132 401t362 147q230 0 344 -164t116 -428h-770zM729 1202l-180 178l-184 -178h-127
l217 287h194l217 -287h-137z" />
    <glyph glyph-name="edieresis" unicode="&#xeb;" horiz-adv-x="1118" 
d="M556 934q-130 0 -206 -85t-86 -224h586q-10 145 -87 227t-207 82zM264 481q0 -166 78 -264t233 -98q109 0 180 48t93 134h180q-41 -151 -163 -237t-294 -87q-239 1 -365 147t-126 401t132 401t362 147q230 0 344 -164t116 -428h-770zM655 1415h172v-196h-172v196z
M272 1415h170v-196h-170v196z" />
    <glyph glyph-name="igrave" unicode="&#xec;" horiz-adv-x="512" 
d="M168 1053h174v-1053h-174v1053zM-51 1497h211l192 -295h-108z" />
    <glyph glyph-name="iacute" unicode="&#xed;" horiz-adv-x="512" 
d="M168 1053h174v-1053h-174v1053zM330 1497h211l-295 -295h-109z" />
    <glyph glyph-name="icircumflex" unicode="&#xee;" horiz-adv-x="512" 
d="M168 1053h174v-1053h-174v1053zM428 1202l-180 178l-185 -178h-126l217 287h194l217 -287h-137z" />
    <glyph glyph-name="idieresis" unicode="&#xef;" horiz-adv-x="512" 
d="M168 1053h174v-1053h-174v1053zM332 1415h172v-196h-172v196zM-51 1415h170v-196h-170v196z" />
    <glyph glyph-name="ntilde" unicode="&#xf1;" horiz-adv-x="1138" 
 />
    <glyph glyph-name="ograve" unicode="&#xf2;" horiz-adv-x="1157" 
d="M893 526q0 201 -79 304q-78 104 -226 104t-229 -104t-81 -302q0 -199 82 -304q80 -105 227 -105t227 103t79 304zM96 528q0 256 126 400t367 145q241 -1 365 -143t123 -402q0 -260 -127 -405q-126 -145 -364 -145t-364 146q-126 148 -126 404zM303 1497h211l193 -295
h-109z" />
    <glyph glyph-name="oacute" unicode="&#xf3;" horiz-adv-x="1157" 
d="M893 526q0 201 -79 304q-78 104 -226 104t-229 -104t-81 -302q0 -199 82 -304q80 -105 227 -105t227 103t79 304zM96 528q0 256 126 400t367 145q241 -1 365 -143t123 -402q0 -260 -127 -405q-126 -145 -364 -145t-364 146q-126 148 -126 404zM653 1497h211l-295 -295
h-108z" />
    <glyph glyph-name="ocircumflex" unicode="&#xf4;" horiz-adv-x="1157" 
d="M893 526q0 201 -79 304q-78 104 -226 104t-229 -104t-81 -302q0 -199 82 -304q80 -105 227 -105t227 103t79 304zM96 528q0 256 126 400t367 145q241 -1 365 -143t123 -402q0 -260 -127 -405q-126 -145 -364 -145t-364 146q-126 148 -126 404zM760 1202l-180 178
l-185 -178h-127l217 287h195l217 -287h-137z" />
    <glyph glyph-name="otilde" unicode="&#xf5;" horiz-adv-x="1157" 
d="M893 526q0 201 -79 304q-78 104 -226 104t-229 -104t-81 -302q0 -199 82 -304q80 -105 227 -105t227 103t79 304zM96 528q0 256 126 400t367 145q241 -1 365 -143t123 -402q0 -260 -127 -405q-126 -145 -364 -145t-364 146q-126 148 -126 404z" />
    <glyph glyph-name="odieresis" unicode="&#xf6;" horiz-adv-x="1157" 
d="M893 526q0 201 -79 304q-78 104 -226 104t-229 -104t-81 -302q0 -199 82 -304q80 -105 227 -105t227 103t79 304zM96 528q0 256 126 400t367 145q241 -1 365 -143t123 -402q0 -260 -127 -405q-126 -145 -364 -145t-364 146q-126 148 -126 404zM692 1415h172v-196h-172
v196zM309 1415h170v-196h-170v196z" />
    <glyph glyph-name="ugrave" unicode="&#xf9;" horiz-adv-x="1138" 
d="M305 1053v-691q4 -127 54 -184t175 -57t203 90t78 240v602h174q0 -1008 2 -1053h-168v172h-4q-106 -195 -340 -195q-186 1 -267 95t-81 282v699h174zM276 1497h211l193 -295h-109z" />
    <glyph glyph-name="uacute" unicode="&#xfa;" horiz-adv-x="1138" 
d="M305 1053v-691q4 -127 54 -184t175 -57t203 90t78 240v602h174q0 -1008 2 -1053h-168v172h-4q-106 -195 -340 -195q-186 1 -267 95t-81 282v699h174zM653 1497h211l-295 -295h-108z" />
    <glyph glyph-name="ucircumflex" unicode="&#xfb;" horiz-adv-x="1138" 
d="M305 1053v-691q4 -127 54 -184t175 -57t203 90t78 240v602h174q0 -1008 2 -1053h-168v172h-4q-106 -195 -340 -195q-186 1 -267 95t-81 282v699h174zM741 1202l-180 178l-184 -178h-127l217 287h195l217 -287h-138z" />
    <glyph glyph-name="udieresis" unicode="&#xfc;" horiz-adv-x="1138" 
d="M305 1053v-691q4 -127 54 -184t175 -57t203 90t78 240v602h174q0 -1008 2 -1053h-168v172h-4q-106 -195 -340 -195q-186 1 -267 95t-81 282v699h174zM676 1415h172v-196h-172v196zM293 1415h170v-196h-170v196z" />
    <glyph glyph-name="dotlessi" unicode="&#x131;" horiz-adv-x="512" 
d="M168 1053h174v-1053h-174v1053z" />
    <glyph glyph-name="circumflex" unicode="&#x2c6;" horiz-adv-x="567" 
d="M453 1202l-181 178l-184 -178h-127l217 287h195l217 -287h-137z" />
    <glyph glyph-name="bullet" unicode="&#x2022;" 
d="M641 768q0 160 112 272q111 112 271 113q160 0 272 -113q112 -112 113 -272q0 -160 -113 -272q-112 -112 -272 -111q-160 -1 -272 111t-111 272z" />
    <glyph glyph-name="uniF240" unicode="&#xf240;" horiz-adv-x="10876" 
d="M1278 1591q50 0 68 -51l153 -516h520q29 0 48 -20t19 -56t-30 -49l-438 -287l188 -524q4 -16 4 -35t-17 -37t-43 -18t-48 14l-422 365l-422 -365q-22 -14 -48 -14t-43 18t-17 36t4 36l188 524l-438 287q-31 14 -31 49q-1 36 19 56t49 20h520l153 516q14 51 64 51z" />
    <glyph glyph-name="uniF241" unicode="&#xf241;" horiz-adv-x="10876" 
d="M3326 1591q50 0 68 -51l153 -516h520q29 0 48 -20t19 -56t-30 -49l-438 -287l188 -524q4 -16 4 -35t-17 -37t-44 -18t-47 14l-422 365l-422 -365q-22 -14 -48 -14t-43 18t-17 36t4 36l188 524l-438 287q-31 14 -31 49q-1 36 19 56t49 20h520l153 516q14 51 64 51z
M1278 1591q50 0 68 -51l153 -516h520q29 0 48 -20t19 -56t-30 -49l-438 -287l188 -524q4 -16 4 -35t-17 -37t-43 -18t-48 14l-422 365l-422 -365q-22 -14 -48 -14t-43 18t-17 36t4 36l188 524l-438 287q-31 14 -31 49q-1 36 19 56t49 20h520l153 516q14 51 64 51z" />
    <glyph glyph-name="uniF242" unicode="&#xf242;" horiz-adv-x="10876" 
d="M5374 1591q50 0 68 -51l153 -516h520q29 0 48 -20t19 -56t-30 -49l-438 -287l188 -524q4 -16 4 -35t-17 -37t-43 -18t-48 14l-422 365l-422 -365q-22 -14 -48 -14t-43 18t-17 36t4 36l188 524l-438 287q-31 14 -31 49q-1 36 19 56t49 20h520l153 516q14 51 64 51z
M3326 1591q50 0 68 -51l153 -516h520q29 0 48 -20t19 -56t-30 -49l-438 -287l188 -524q4 -16 4 -35t-17 -37t-44 -18t-47 14l-422 365l-422 -365q-22 -14 -48 -14t-43 18t-17 36t4 36l188 524l-438 287q-31 14 -31 49q-1 36 19 56t49 20h520l153 516q14 51 64 51zM1278 1591
q50 0 68 -51l153 -516h520q29 0 48 -20t19 -56t-30 -49l-438 -287l188 -524q4 -16 4 -35t-17 -37t-43 -18t-48 14l-422 365l-422 -365q-22 -14 -48 -14t-43 18t-17 36t4 36l188 524l-438 287q-31 14 -31 49q-1 36 19 56t49 20h520l153 516q14 51 64 51z" />
    <glyph glyph-name="uniF243" unicode="&#xf243;" horiz-adv-x="10876" 
d="M7422 1591q50 0 68 -51l153 -516h520q29 0 48 -20t19 -56t-30 -49l-438 -287l188 -524q4 -16 4 -35t-17 -37t-43 -18t-48 14l-422 365l-422 -365q-22 -14 -48 -14t-43 18t-17 36t4 36l188 524l-438 287q-31 14 -31 49q-1 36 19 56t49 20h520l153 516q14 51 64 51z
M5374 1591q50 0 68 -51l153 -516h520q29 0 48 -20t19 -56t-30 -49l-438 -287l188 -524q4 -16 4 -35t-17 -37t-43 -18t-48 14l-422 365l-422 -365q-22 -14 -48 -14t-43 18t-17 36t4 36l188 524l-438 287q-31 14 -31 49q-1 36 19 56t49 20h520l153 516q14 51 64 51zM3326 1591
q50 0 68 -51l153 -516h520q29 0 48 -20t19 -56t-30 -49l-438 -287l188 -524q4 -16 4 -35t-17 -37t-44 -18t-47 14l-422 365l-422 -365q-22 -14 -48 -14t-43 18t-17 36t4 36l188 524l-438 287q-31 14 -31 49q-1 36 19 56t49 20h520l153 516q14 51 64 51zM1278 1591
q50 0 68 -51l153 -516h520q29 0 48 -20t19 -56t-30 -49l-438 -287l188 -524q4 -16 4 -35t-17 -37t-43 -18t-48 14l-422 365l-422 -365q-22 -14 -48 -14t-43 18t-17 36t4 36l188 524l-438 287q-31 14 -31 49q-1 36 19 56t49 20h520l153 516q14 51 64 51z" />
    <glyph glyph-name="uniF244" unicode="&#xf244;" horiz-adv-x="10876" 
d="M9470 1591q50 0 68 -51l153 -516h520q29 0 48 -20t19 -56t-30 -49l-438 -287l188 -524q4 -16 4 -35t-17 -37t-43 -18t-48 14l-422 365l-422 -365q-22 -14 -48 -14t-43 18t-17 36t4 36l188 524l-438 287q-31 14 -31 49q-1 36 19 56t49 20h520l153 516q14 51 64 51z
M7422 1591q50 0 68 -51l153 -516h520q29 0 48 -20t19 -56t-30 -49l-438 -287l188 -524q4 -16 4 -35t-17 -37t-43 -18t-48 14l-422 365l-422 -365q-22 -14 -48 -14t-43 18t-17 36t4 36l188 524l-438 287q-31 14 -31 49q-1 36 19 56t49 20h520l153 516q14 51 64 51zM5374 1591
q50 0 68 -51l153 -516h520q29 0 48 -20t19 -56t-30 -49l-438 -287l188 -524q4 -16 4 -35t-17 -37t-43 -18t-48 14l-422 365l-422 -365q-22 -14 -48 -14t-43 18t-17 36t4 36l188 524l-438 287q-31 14 -31 49q-1 36 19 56t49 20h520l153 516q14 51 64 51zM3326 1591
q50 0 68 -51l153 -516h520q29 0 48 -20t19 -56t-30 -49l-438 -287l188 -524q4 -16 4 -35t-17 -37t-44 -18t-47 14l-422 365l-422 -365q-22 -14 -48 -14t-43 18t-17 36t4 36l188 524l-438 287q-31 14 -31 49q-1 36 19 56t49 20h520l153 516q14 51 64 51zM1278 1591
q50 0 68 -51l153 -516h520q29 0 48 -20t19 -56t-30 -49l-438 -287l188 -524q4 -16 4 -35t-17 -37t-43 -18t-48 14l-422 365l-422 -365q-22 -14 -48 -14t-43 18t-17 36t4 36l188 524l-438 287q-31 14 -31 49q-1 36 19 56t49 20h520l153 516q14 51 64 51z" />
    <glyph glyph-name="GHT" horiz-adv-x="0" 
 />
    <glyph glyph-name="NULL" 
d="M1280 256v1024h-1024v-1024h1024zM1536 1536v-1536h-1536v1536h1536z" />
    <glyph glyph-name="ght" horiz-adv-x="0" 
 />
  </font>
</defs>
</svg>
